<svg width="32" height="37" viewBox="0 0 32 37" fill="none" xmlns="http://www.w3.org/2000/svg">
<path d="M8.63355 23.5998L11.2133 31.4V34.0001L16.3729 36.6002L21.5324 34.0001V31.4L24.1122 23.5998L26.6919 31.4L31.8515 28.8V5.40036C31.8515 2.52736 24.9223 0.200195 16.374 0.200195C7.82569 0.200195 0.896484 2.52736 0.896484 5.40036V28.8L6.05602 31.4L8.6358 23.5998H8.63355ZM2.18412 5.40036C2.18412 4.97909 2.94816 3.92592 5.83468 2.95655C8.6313 2.01776 12.374 1.50024 16.3729 1.50024C20.3717 1.50024 24.1144 2.01776 26.911 2.95655C29.7976 3.92592 30.5616 4.97909 30.5616 5.40036C30.5616 5.82162 29.7976 6.87479 26.911 7.84416C24.1144 8.78295 20.3717 9.30048 16.3729 9.30048C12.374 9.30048 8.6313 8.78295 5.83468 7.84416C2.94816 6.87479 2.18412 5.82162 2.18412 5.40036Z" fill="#333334"/>
</svg>
