<svg width="24" height="24" viewBox="0 0 24 24" fill="none" xmlns="http://www.w3.org/2000/svg">
<path fillRule="evenodd" clipRule="evenodd" d="M18.6067 6.20659C18.8312 5.98204 18.8312 5.61797 18.6067 5.39342C18.3821 5.16887 18.0181 5.16887 17.7935 5.39342L12.0001 11.1868L6.20668 5.39342C5.98213 5.16887 5.61806 5.16887 5.39351 5.39342C5.16896 5.61797 5.16896 5.98204 5.39351 6.20659L11.1869 12L5.39351 17.7934C5.16896 18.018 5.16896 18.382 5.39351 18.6066C5.61806 18.8311 5.98213 18.8311 6.20668 18.6066L12.0001 12.8132L17.7935 18.6066C18.0181 18.8311 18.3821 18.8311 18.6067 18.6066C18.8312 18.382 18.8312 18.018 18.6067 17.7934L12.8133 12L18.6067 6.20659Z" fill="#232427"/>
</svg>
