<svg width="40" height="40" viewBox="0 0 40 40" fill="none" xmlns="http://www.w3.org/2000/svg">
<path fillRule="evenodd" clipRule="evenodd" d="M6.66666 11.5C6.39051 11.5 6.16666 11.7239 6.16666 12C6.16666 12.2761 6.39051 12.5 6.66666 12.5H33.3333C33.6095 12.5 33.8333 12.2761 33.8333 12C33.8333 11.7239 33.6095 11.5 33.3333 11.5H6.66666ZM6.16666 20C6.16666 19.7239 6.39051 19.5 6.66666 19.5H33.3333C33.6095 19.5 33.8333 19.7239 33.8333 20C33.8333 20.2761 33.6095 20.5 33.3333 20.5H6.66666C6.39051 20.5 6.16666 20.2761 6.16666 20ZM6.16666 28C6.16666 27.7239 6.39051 27.5 6.66666 27.5H33.3333C33.6095 27.5 33.8333 27.7239 33.8333 28C33.8333 28.2761 33.6095 28.5 33.3333 28.5H6.66666C6.39051 28.5 6.16666 28.2761 6.16666 28Z" fill="#232427"/>
</svg>
