<svg width="48" height="49" viewBox="0 0 48 49" fill="none" xmlns="http://www.w3.org/2000/svg">
<path d="M6 12.5H10H42" stroke="#979797" stroke-width="1.5" strokeLinecap="round" strokeLinejoin="round"/>
<path d="M38.0003 12.5V40.5C38.0003 41.5609 37.5788 42.5783 36.8287 43.3284C36.0786 44.0786 35.0611 44.5 34.0003 44.5H14.0003C12.9394 44.5 11.922 44.0786 11.1718 43.3284C10.4217 42.5783 10.0003 41.5609 10.0003 40.5V12.5M16.0003 12.5V8.5C16.0003 7.43913 16.4217 6.42172 17.1718 5.67157C17.922 4.92143 18.9394 4.5 20.0003 4.5H28.0003C29.0611 4.5 30.0786 4.92143 30.8287 5.67157C31.5788 6.42172 32.0003 7.43913 32.0003 8.5V12.5" stroke="#979797" stroke-width="1.5" strokeLinecap="round" strokeLinejoin="round"/>
<path d="M19.9997 22.5V34.5" stroke="#979797" stroke-width="1.5" strokeLinecap="round" strokeLinejoin="round"/>
<path d="M28.0003 22.5V34.5" stroke="#979797" stroke-width="1.5" strokeLinecap="round" strokeLinejoin="round"/>
</svg>
