<svg width="40" height="40" viewBox="0 0 40 40" fill="none" xmlns="http://www.w3.org/2000/svg">
<path d="M17.55 31L11.85 25.3L13.275 23.875L17.55 28.15L26.725 18.975L28.15 20.4L17.55 31Z" fill="#232427"/>
<path d="M9.16663 36.6667C8.49996 36.6667 7.91663 36.4167 7.41663 35.9167C6.91663 35.4167 6.66663 34.8334 6.66663 34.1667V12.5C6.66663 11.8334 6.91663 11.25 7.41663 10.75C7.91663 10.25 8.49996 10 9.16663 10H13.75V9.58337C13.75 7.83337 14.3541 6.35421 15.5625 5.14587C16.7708 3.93754 18.25 3.33337 20 3.33337C21.75 3.33337 23.2291 3.93754 24.4375 5.14587C25.6458 6.35421 26.25 7.83337 26.25 9.58337V10H30.8333C31.5 10 32.0833 10.25 32.5833 10.75C33.0833 11.25 33.3333 11.8334 33.3333 12.5V34.1667C33.3333 34.8334 33.0833 35.4167 32.5833 35.9167C32.0833 36.4167 31.5 36.6667 30.8333 36.6667H9.16663ZM9.16663 34.1667H30.8333V12.5H26.25V16.25C26.25 16.6042 26.1295 16.9011 25.8885 17.1407C25.6475 17.3802 25.3489 17.5 24.9927 17.5C24.6364 17.5 24.3402 17.3802 24.1041 17.1407C23.868 16.9011 23.75 16.6042 23.75 16.25V12.5H16.25V16.25C16.25 16.6042 16.1295 16.9011 15.8885 17.1407C15.6475 17.3802 15.3489 17.5 14.9927 17.5C14.6364 17.5 14.3402 17.3802 14.1041 17.1407C13.868 16.9011 13.75 16.6042 13.75 16.25V12.5H9.16663V34.1667ZM16.25 10H23.75V9.58337C23.75 8.52782 23.3888 7.63893 22.6666 6.91671C21.9444 6.19448 21.0555 5.83337 20 5.83337C18.9444 5.83337 18.0555 6.19448 17.3333 6.91671C16.6111 7.63893 16.25 8.52782 16.25 9.58337V10Z" fill="#232427"/>
</svg>
