<svg width="48" height="48" viewBox="0 0 48 48" fill="none" xmlns="http://www.w3.org/2000/svg">
<path fillRule="evenodd" clipRule="evenodd" d="M43.1799 23.9998C43.1799 14.3994 35.6934 4.81982 23.9999 4.81982C13.7562 4.81982 9.12077 12.9881 7.48613 16.2253L7.26075 16.6716L6.3681 16.2208L6.59348 15.7745C8.23939 12.5151 13.1234 3.81982 23.9999 3.81982C36.316 3.81982 44.1799 13.9202 44.1799 23.9998C44.1799 34.0794 36.316 44.1798 23.9999 44.1798C18.0863 44.1798 13.1867 41.8456 9.69788 38.2957C7.82614 36.3912 6.36193 34.1385 5.36312 31.7116C5.25803 31.4562 5.37984 31.164 5.6352 31.0589C5.89057 30.9538 6.18277 31.0756 6.28787 31.331C7.23899 33.6421 8.63256 35.7851 10.4111 37.5947C13.7194 40.961 18.365 43.1798 23.9999 43.1798C35.6934 43.1798 43.1799 33.6002 43.1799 23.9998ZM4.7998 7.49981C4.52366 7.49981 4.2998 7.72367 4.2998 7.99981V17.5998C4.2998 17.876 4.52366 18.0998 4.7998 18.0998H14.3998C14.6759 18.0998 14.8998 17.876 14.8998 17.5998C14.8998 17.3237 14.6759 17.0998 14.3998 17.0998H5.2998V7.99981C5.2998 7.72367 5.07595 7.49981 4.7998 7.49981ZM23.4998 31.9999V15.9999H24.4998V31.9999H23.4998Z" fill="#A8A198"/>
<path d="M7.48613 16.2253L7.03981 15.9999L7.03981 15.9999L7.48613 16.2253ZM7.26075 16.6716L7.03538 17.1179C7.15375 17.1777 7.29102 17.188 7.41699 17.1466C7.54296 17.1051 7.6473 17.0154 7.70708 16.897L7.26075 16.6716ZM6.3681 16.2208L5.92178 15.9955C5.86201 16.1138 5.8517 16.2511 5.89314 16.3771C5.93457 16.503 6.02435 16.6074 6.14273 16.6672L6.3681 16.2208ZM6.59348 15.7745L7.03981 15.9999L7.03981 15.9999L6.59348 15.7745ZM9.69788 38.2957L9.34128 38.6462L9.69788 38.2957ZM5.36312 31.7116L4.90075 31.9019H4.90075L5.36312 31.7116ZM5.6352 31.0589L5.82549 31.5213H5.82549L5.6352 31.0589ZM6.28787 31.331L5.82549 31.5213H5.82549L6.28787 31.331ZM10.4111 37.5947L10.7677 37.2443H10.7677L10.4111 37.5947ZM5.2998 17.0998H4.7998C4.7998 17.376 5.02366 17.5998 5.2998 17.5998V17.0998ZM23.4998 15.9999V15.4999C23.2237 15.4999 22.9998 15.7238 22.9998 15.9999H23.4998ZM23.4998 31.9999H22.9998C22.9998 32.2761 23.2237 32.4999 23.4998 32.4999V31.9999ZM24.4998 15.9999H24.9998C24.9998 15.7238 24.776 15.4999 24.4998 15.4999V15.9999ZM24.4998 31.9999V32.4999C24.776 32.4999 24.9998 32.2761 24.9998 31.9999H24.4998ZM23.9999 5.31982C35.3823 5.31982 42.6799 14.6393 42.6799 23.9998H43.6799C43.6799 14.1595 36.0044 4.31982 23.9999 4.31982V5.31982ZM7.93245 16.4507C9.56135 13.2249 14.0725 5.31982 23.9999 5.31982V4.31982C13.4399 4.31982 8.68019 12.7514 7.03981 15.9999L7.93245 16.4507ZM7.70708 16.897L7.93245 16.4507L7.03981 15.9999L6.81443 16.4462L7.70708 16.897ZM6.14273 16.6672L7.03538 17.1179L7.48613 16.2253L6.59348 15.7745L6.14273 16.6672ZM6.14716 15.5491L5.92178 15.9955L6.81443 16.4462L7.03981 15.9999L6.14716 15.5491ZM23.9999 3.31982C12.8068 3.31982 7.79859 12.2788 6.14716 15.5491L7.03981 15.9999C8.68019 12.7514 13.4399 4.31982 23.9999 4.31982V3.31982ZM44.6799 23.9998C44.6799 13.6809 36.6276 3.31982 23.9999 3.31982V4.31982C36.0044 4.31982 43.6799 14.1595 43.6799 23.9998H44.6799ZM23.9999 44.6798C36.6276 44.6798 44.6799 34.3187 44.6799 23.9998H43.6799C43.6799 33.8401 36.0044 43.6798 23.9999 43.6798V44.6798ZM9.34128 38.6462C12.9203 42.2879 17.9469 44.6798 23.9999 44.6798V43.6798C18.2257 43.6798 13.4531 41.4033 10.0545 37.9452L9.34128 38.6462ZM4.90075 31.9019C5.9234 34.3867 7.42292 36.6942 9.34128 38.6462L10.0545 37.9452C8.22935 36.0881 6.80046 33.8903 5.82549 31.5213L4.90075 31.9019ZM5.44491 30.5965C4.93419 30.8067 4.69056 31.3911 4.90075 31.9019L5.8255 31.5213H5.82549L5.44491 30.5965ZM6.75024 31.1407C6.54005 30.63 5.95564 30.3863 5.44491 30.5965L5.82549 31.5213H5.82549L6.75024 31.1407ZM10.7677 37.2443C9.03578 35.482 7.67753 33.3938 6.75024 31.1407L5.82549 31.5213C6.80046 33.8903 8.22935 36.0881 10.0545 37.9452L10.7677 37.2443ZM23.9999 42.6798C18.5044 42.6798 13.9858 40.5187 10.7677 37.2443L10.0545 37.9452C13.4531 41.4033 18.2257 43.6798 23.9999 43.6798V42.6798ZM42.6799 23.9998C42.6799 33.3603 35.3823 42.6798 23.9999 42.6798V43.6798C36.0044 43.6798 43.6799 33.8401 43.6799 23.9998H42.6799ZM4.7998 7.99981V6.99981C4.24752 6.99981 3.7998 7.44753 3.7998 7.99981H4.7998ZM4.7998 17.5998V7.99981H3.7998V17.5998H4.7998ZM4.7998 17.5998H3.7998C3.7998 18.1521 4.24752 18.5998 4.7998 18.5998V17.5998ZM14.3998 17.5998H4.7998V18.5998H14.3998V17.5998ZM14.3998 17.5998V18.5998C14.9521 18.5998 15.3998 18.1521 15.3998 17.5998H14.3998ZM14.3998 17.5998H15.3998C15.3998 17.0475 14.9521 16.5998 14.3998 16.5998V17.5998ZM5.2998 17.5998H14.3998V16.5998H5.2998V17.5998ZM4.7998 7.99981V17.0998H5.7998V7.99981H4.7998ZM4.7998 7.99981H5.7998C5.7998 7.44753 5.35209 6.99981 4.7998 6.99981V7.99981ZM22.9998 15.9999V31.9999H23.9998V15.9999H22.9998ZM24.4998 15.4999H23.4998V16.4999H24.4998V15.4999ZM24.9998 31.9999V15.9999H23.9998V31.9999H24.9998ZM23.4998 32.4999H24.4998V31.4999H23.4998V32.4999Z" fill="#A8A198"/>
</svg>
