<svg width="24" height="24" viewBox="0 0 24 24" fill="none" xmlns="http://www.w3.org/2000/svg">
<path d="M15 21C13.0333 21 11.2833 20.4417 9.75 19.325C8.21667 18.2083 7.13333 16.7667 6.5 15H3V13H6.05C6 12.6 5.97933 12.2293 5.988 11.888C5.99667 11.5467 6.01733 11.2507 6.05 11H3V9H6.5C7.13333 7.23333 8.21667 5.79167 9.75 4.675C11.2833 3.55833 13.0333 3 15 3C16.15 3 17.2377 3.20433 18.263 3.613C19.2883 4.02167 20.2007 4.584 21 5.3L19.575 6.7C18.9583 6.16667 18.2627 5.75 17.488 5.45C16.7133 5.15 15.884 5 15 5C13.5833 5 12.3167 5.371 11.2 6.113C10.0833 6.855 9.24167 7.81733 8.675 9H15V11H8.075C8.00833 11.45 7.98333 11.846 8 12.188C8.01667 12.53 8.04167 12.8007 8.075 13H15V15H8.675C9.24167 16.1833 10.0833 17.146 11.2 17.888C12.3167 18.63 13.5833 19.0007 15 19C15.8833 19 16.7127 18.85 17.488 18.55C18.2633 18.25 18.959 17.8333 19.575 17.3L21 18.7C20.2 19.4167 19.2873 19.9793 18.262 20.388C17.2367 20.7967 16.1493 21.0007 15 21Z" fill="#232427"/>
</svg>
