<svg width="56" height="56" viewBox="0 0 56 56" fill="none" xmlns="http://www.w3.org/2000/svg">
<path d="M6.86548 45.4999C5.95043 45.4999 5.16079 45.1677 4.49657 44.5034C3.83219 43.8391 3.5 43.0495 3.5 42.1345V13.8654C3.5 12.9504 3.83215 12.1608 4.49645 11.4965C5.16075 10.8322 5.95041 10.5 6.86543 10.5H49.1345C50.0671 10.5 50.8611 10.8322 51.5166 11.4965C52.1721 12.1608 52.4999 12.9504 52.4999 13.8654V42.1345C52.4999 43.0495 52.1721 43.8391 51.5166 44.5034C50.8611 45.1677 50.0671 45.4999 49.1345 45.4999H6.86548ZM6.86548 42.8525H49.1345C49.3439 42.8525 49.516 42.7852 49.6506 42.6505C49.7852 42.5159 49.8525 42.3439 49.8525 42.1345V13.8654C49.8525 13.656 49.7852 13.484 49.6506 13.3494C49.516 13.2147 49.3439 13.1474 49.1345 13.1474H6.86548C6.65607 13.1474 6.48404 13.2147 6.34941 13.3494C6.21478 13.484 6.14746 13.656 6.14746 13.8654V42.1345C6.14746 42.3439 6.21478 42.5159 6.34941 42.6505C6.48404 42.7852 6.65607 42.8525 6.86548 42.8525ZM8.18913 34.771H10.4103V24.7422L17.1321 34.771H19.3038V21.2288H17.1051V31.2577L10.5 21.2288H8.18913V34.771ZM22.4898 34.771H30.975V32.5499H24.8455V29.198H30.975V26.9993H24.8455V23.4858H30.975V21.2288H22.4898V34.771ZM36.3731 34.771H46.1327C46.6303 34.771 47.0404 34.6132 47.3629 34.2976C47.6855 33.9819 47.8468 33.5803 47.8468 33.0929V21.2288H45.6481V32.4154H42.2871V23.5981H40.0885V32.4154H36.916V21.2288H34.6949V33.0929C34.6949 33.5803 34.8527 33.9819 35.1684 34.2976C35.4841 34.6132 35.8856 34.771 36.3731 34.771Z" fill="#A8A198"/>
</svg>
