<svg width="135" height="52" viewBox="0 0 135 52" fill="none" xmlns="http://www.w3.org/2000/svg">
<path d="M31.7058 44.5093C31.5988 44.5093 31.5106 44.5447 31.4422 44.6134C31.3727 44.6832 31.3385 44.7719 31.3385 44.8793V47.8353H26.7348V44.8793C26.7348 44.7719 26.7006 44.6832 26.631 44.6134C26.5615 44.5436 26.4744 44.5093 26.3674 44.5093C26.2604 44.5093 26.1721 44.5447 26.1037 44.6134C26.0342 44.6832 26 44.7719 26 44.8793V51.5392C26 51.6466 26.0342 51.7353 26.1037 51.8039C26.1732 51.8738 26.2604 51.9081 26.3674 51.9081C26.4744 51.9081 26.5626 51.8726 26.631 51.8039C26.6994 51.7353 26.7348 51.6466 26.7348 51.5392V48.4979H31.3385V51.5392C31.3385 51.6466 31.3727 51.7353 31.4422 51.8039C31.5117 51.8738 31.5988 51.9081 31.7058 51.9081C31.8128 51.9081 31.9011 51.8726 31.9706 51.8039C32.0401 51.7341 32.0743 51.6466 32.0743 51.5392V44.8793C32.0743 44.7719 32.0401 44.6832 31.9706 44.6134C31.9011 44.5436 31.8128 44.5093 31.7058 44.5093Z" fill="#232427"/>
<path d="M37.4271 47.0189C37.0344 46.7917 36.5854 46.6776 36.0823 46.6776C35.5792 46.6776 35.1302 46.7917 34.7331 47.0189C34.337 47.246 34.0259 47.5584 33.7997 47.9573C33.5736 48.355 33.46 48.8093 33.46 49.3212C33.46 49.833 33.5736 50.2784 33.7997 50.6762C34.0259 51.0739 34.337 51.3864 34.7331 51.6135C35.1291 51.8406 35.5792 51.9547 36.0823 51.9547C36.5854 51.9547 37.0333 51.8417 37.4271 51.6135C37.8198 51.3864 38.1309 51.0739 38.3604 50.6762C38.5899 50.2784 38.7046 49.8275 38.7046 49.3212C38.6991 48.8093 38.5822 48.355 38.356 47.9573C38.1298 47.5595 37.8198 47.246 37.4271 47.0189ZM37.7426 50.3349C37.5793 50.6318 37.3532 50.8656 37.0641 51.0362C36.7751 51.2069 36.4475 51.2911 36.0834 51.2911C35.7193 51.2911 35.3917 51.2058 35.1026 51.0362C34.8136 50.8656 34.5852 50.6318 34.4186 50.3349C34.2521 50.038 34.1682 49.7001 34.1682 49.3212C34.1682 48.9422 34.251 48.6032 34.4186 48.303C34.5852 48.0027 34.8136 47.7678 35.1026 47.5972C35.3917 47.4266 35.7193 47.3413 36.0834 47.3413C36.4475 47.3413 36.7751 47.4266 37.0641 47.5972C37.3532 47.7678 37.5793 48.0027 37.7426 48.303C37.9059 48.6032 37.9875 48.9422 37.9875 49.3212C37.9875 49.7001 37.9059 50.038 37.7426 50.3349Z" fill="#232427"/>
<path d="M43.1373 48.856C43.241 48.8183 43.3425 48.7751 43.4396 48.7241C43.7981 48.5347 44.0794 48.2732 44.2835 47.9375C44.4876 47.6029 44.5902 47.2207 44.5902 46.7919C44.5902 46.3631 44.4876 45.9476 44.2835 45.6031C44.0794 45.2596 43.7981 44.9904 43.4396 44.7976C43.081 44.6048 42.6728 44.5084 42.2139 44.5084H40.4499C40.3429 44.5084 40.2546 44.5439 40.1862 44.6126C40.1167 44.6824 40.0825 44.771 40.0825 44.8785V51.5383C40.0825 51.6458 40.1167 51.7344 40.1862 51.8031C40.2557 51.8729 40.3429 51.9072 40.4499 51.9072C40.5569 51.9072 40.6452 51.8718 40.7136 51.8031C40.782 51.7344 40.8172 51.6458 40.8172 51.5383V49.0089H42.2139C42.2691 49.0089 42.3209 49.0033 42.3739 49L44.0717 51.7178C44.1092 51.7809 44.1522 51.8286 44.1986 51.8596C44.246 51.8917 44.31 51.9072 44.3916 51.9072C44.5615 51.9072 44.6763 51.8507 44.7359 51.7366C44.7954 51.6236 44.7778 51.4907 44.684 51.3389L43.1362 48.856H43.1373ZM42.2139 48.2987H40.8172V45.2197H42.2139C42.5338 45.2197 42.8185 45.2862 43.0678 45.418C43.316 45.551 43.5124 45.736 43.6569 45.972C43.8014 46.2091 43.8742 46.4817 43.8742 46.7919C43.8742 47.0822 43.8014 47.3414 43.6569 47.5685C43.5124 47.7957 43.316 47.9741 43.0678 48.1037C42.8196 48.2333 42.5349 48.2987 42.2139 48.2987Z" fill="#232427"/>
<path d="M49.1321 47.0054C48.7769 46.7872 48.3599 46.6786 47.8822 46.6786C47.4045 46.6786 46.971 46.7927 46.5992 47.0198C46.2285 47.247 45.9373 47.5583 45.7265 47.9527C45.5158 48.3471 45.4099 48.8036 45.4099 49.3221C45.4099 49.8406 45.5213 50.2883 45.7453 50.686C45.9681 51.0838 46.276 51.3951 46.6698 51.6189C47.0625 51.8438 47.5138 51.9557 48.0234 51.9557C48.3191 51.9557 48.6269 51.897 48.9479 51.7806C49.269 51.6643 49.5326 51.517 49.74 51.3408C49.815 51.2776 49.8514 51.2023 49.8481 51.1137C49.8448 51.025 49.8018 50.943 49.7213 50.8677C49.6584 50.8167 49.5823 50.7935 49.4951 50.7968C49.4069 50.8001 49.3285 50.83 49.259 50.8865C49.1211 51.0062 48.9369 51.1059 48.7074 51.1846C48.478 51.2632 48.2496 51.3031 48.0234 51.3031C47.6461 51.3031 47.313 51.2178 47.0239 51.0472C46.7349 50.8766 46.5065 50.6439 46.3399 50.347C46.2087 50.1132 46.1314 49.8495 46.1027 49.5603H49.9099C50.0103 49.5603 50.0919 49.5304 50.1548 49.4706C50.2177 49.4108 50.2497 49.3299 50.2497 49.2291C50.2497 48.7371 50.1526 48.2984 49.9574 47.9128C49.7621 47.5273 49.4874 47.2259 49.1321 47.0076V47.0054ZM46.127 48.9521C46.1601 48.7161 46.2131 48.4923 46.3113 48.294C46.4591 47.9937 46.6676 47.7588 46.939 47.5882C47.2093 47.4176 47.5237 47.3334 47.8822 47.3334C48.2408 47.3334 48.5375 47.4154 48.7924 47.5793C49.0472 47.7433 49.2436 47.9704 49.3815 48.2607C49.4808 48.469 49.5293 48.705 49.5547 48.9521H46.127Z" fill="#232427"/>
<path d="M56.8481 50.562C56.7631 50.5498 56.6826 50.5742 56.6075 50.6374C56.3306 50.8523 56.0383 51.0163 55.7305 51.1293C55.4227 51.2434 55.0951 51.2999 54.7498 51.2999C54.3405 51.2999 53.9587 51.219 53.6035 51.0584C53.2483 50.8977 52.935 50.675 52.6647 50.3903C52.3944 50.1056 52.1826 49.7776 52.0281 49.4053C51.8737 49.0331 51.7976 48.632 51.7976 48.2021C51.7976 47.7722 51.8748 47.39 52.0281 47.0177C52.1826 46.6455 52.3944 46.3175 52.6647 46.0328C52.935 45.748 53.2483 45.5242 53.6035 45.3603C53.9587 45.1963 54.3405 45.1143 54.7498 45.1143C55.1337 45.1143 55.4701 45.1664 55.7592 45.2705C56.0482 45.3747 56.3163 45.5342 56.5612 45.7491C56.6241 45.8001 56.6881 45.8278 56.7543 45.8345C56.8205 45.8411 56.8779 45.8311 56.9286 45.8056C56.9782 45.7802 57.0102 45.7425 57.0235 45.6926C57.0731 45.6671 57.1117 45.6273 57.136 45.5741C57.1603 45.5209 57.1691 45.4633 57.1592 45.4035C57.1492 45.3436 57.1172 45.2916 57.0599 45.2472C56.7135 44.957 56.3549 44.7453 55.9842 44.6124C55.6136 44.4794 55.201 44.413 54.7487 44.413C54.2323 44.413 53.7536 44.5127 53.3101 44.711C52.8666 44.9104 52.4771 45.183 52.1406 45.5309C51.8042 45.8788 51.5427 46.2809 51.3585 46.7385C51.1731 47.1961 51.0805 47.6847 51.0805 48.2021C51.0805 48.7195 51.1754 49.217 51.364 49.6746C51.5527 50.1321 51.8152 50.5365 52.1517 50.8878C52.4882 51.2379 52.8776 51.5115 53.3211 51.7065C53.7646 51.9026 54.2412 52.0001 54.7498 52.0001C55.1767 52.0001 55.5893 51.9381 55.9853 51.8151C56.3814 51.6921 56.7399 51.4827 57.061 51.1858C57.0985 51.1415 57.125 51.0983 57.1415 51.0573C57.157 51.0163 57.1647 50.9709 57.1647 50.9199C57.1647 50.8191 57.1327 50.7371 57.0698 50.6739C57.0069 50.6108 56.933 50.5731 56.8481 50.5609V50.562Z" fill="#232427"/>
<path d="M61.7905 47.0243C61.3977 46.7938 60.952 46.6786 60.4556 46.6786C59.9591 46.6786 59.5123 46.7938 59.1163 47.0243C58.7202 47.2547 58.4069 47.5694 58.1774 47.9671C57.948 48.3649 57.8333 48.8169 57.8333 49.3221C57.8333 49.8273 57.9447 50.2694 58.1686 50.6672C58.3915 51.0649 58.6949 51.3796 59.0788 51.61C59.4627 51.8405 59.8963 51.9557 60.3806 51.9557C60.8395 51.9557 61.2499 51.8504 61.6118 51.6388C61.9118 51.4638 62.1468 51.2234 62.3432 50.943V51.548C62.3432 51.6555 62.3774 51.743 62.4469 51.8083C62.5164 51.8748 62.6046 51.9081 62.7116 51.9081C62.8187 51.9081 62.9069 51.8748 62.9753 51.8083C63.0448 51.743 63.079 51.6555 63.079 51.548V49.3221C63.0724 48.8169 62.9555 48.366 62.7249 47.9671C62.4954 47.5694 62.1843 47.2558 61.7916 47.0243H61.7905ZM62.1115 50.3304C61.9449 50.6306 61.7187 50.8655 61.4319 51.0361C61.1462 51.2067 60.8208 51.2909 60.4556 51.2909C60.0904 51.2909 59.7727 51.2056 59.4837 51.0361C59.1946 50.8655 58.9651 50.6306 58.7952 50.3304C58.6254 50.0312 58.5404 49.6944 58.5404 49.3221C58.5404 48.9499 58.6254 48.6053 58.7952 48.3084C58.9651 48.0125 59.1946 47.7766 59.4837 47.6026C59.7727 47.4298 60.097 47.3422 60.4556 47.3422C60.8141 47.3422 61.1462 47.4298 61.4319 47.6026C61.7176 47.7766 61.9449 48.0114 62.1115 48.3084C62.2781 48.6053 62.3619 48.9432 62.3619 49.3221C62.3619 49.701 62.2792 50.0312 62.1115 50.3304Z" fill="#232427"/>
<path d="M88.2852 44.7076C88.1473 44.7076 88.0259 44.7542 87.9222 44.845C87.8185 44.937 87.7667 45.0611 87.7667 45.2195C87.7667 45.3647 87.8174 45.4876 87.9178 45.5885C88.0182 45.6893 88.1374 45.7402 88.2764 45.7402C88.4154 45.7402 88.5433 45.6904 88.6448 45.5885C88.7463 45.4865 88.796 45.3647 88.796 45.2195C88.796 45.0611 88.7441 44.937 88.6404 44.845C88.5367 44.7542 88.4187 44.7076 88.2863 44.7076H88.2852Z" fill="#232427"/>
<path d="M70.0237 44.5092C69.5957 44.5092 69.2338 44.6022 68.9392 44.7884C68.6436 44.9745 68.4197 45.2349 68.2696 45.5706C68.1185 45.9052 68.0435 46.2941 68.0435 46.7361V46.9156H67.44C67.3396 46.9156 67.2591 46.9455 67.1995 47.0054C67.1399 47.0652 67.1101 47.1427 67.1101 47.238C67.1101 47.3267 67.1399 47.4009 67.1995 47.4607C67.2591 47.5206 67.3396 47.5505 67.44 47.5505H68.0435V51.539C68.0435 51.6521 68.0787 51.7429 68.1471 51.8083C68.2166 51.8748 68.2983 51.908 68.3921 51.908C68.5112 51.908 68.605 51.8748 68.6701 51.8083C68.7363 51.7429 68.7693 51.6521 68.7693 51.539V47.5505H69.9012C70.0016 47.5505 70.0822 47.5206 70.1418 47.4607C70.2013 47.4009 70.2311 47.3267 70.2311 47.238C70.2311 47.1427 70.2013 47.0663 70.1418 47.0054C70.0822 46.9455 70.0016 46.9156 69.9012 46.9156H68.7693V46.6974C68.7693 46.4004 68.8146 46.1367 68.9061 45.9063C68.9977 45.6758 69.1356 45.4963 69.321 45.3667C69.5063 45.2371 69.7402 45.1717 70.0237 45.1717C70.1307 45.1717 70.219 45.1407 70.2885 45.0764C70.3569 45.0133 70.3922 44.9346 70.3922 44.8393C70.3922 44.7441 70.3569 44.6654 70.2885 44.6022C70.219 44.5391 70.1307 44.507 70.0237 44.507V44.5092Z" fill="#232427"/>
<path d="M75.3908 46.7265C75.2838 46.7265 75.1978 46.7597 75.1316 46.8262C75.0654 46.8927 75.0323 46.9802 75.0323 47.0865V49.8907C75.0323 50.1566 74.9606 50.3926 74.815 50.6009C74.6705 50.8092 74.4741 50.9743 74.2259 51.094C73.9777 51.2136 73.6996 51.2734 73.3907 51.2734C73.0818 51.2734 72.7829 51.2103 72.528 51.084C72.2732 50.9577 72.0724 50.7682 71.9246 50.5156C71.7767 50.263 71.7028 49.9406 71.7028 49.5495V47.0865C71.7028 46.9857 71.6686 46.9004 71.5991 46.8306C71.5296 46.7608 71.4425 46.7265 71.3354 46.7265C71.235 46.7265 71.1501 46.7608 71.0806 46.8306C71.0111 46.9004 70.9769 46.9857 70.9769 47.0865V49.5495C70.9769 50.0669 71.0795 50.5056 71.2836 50.8657C71.4877 51.2258 71.7657 51.4995 72.1187 51.6845C72.4707 51.8706 72.87 51.9637 73.3168 51.9637C73.725 51.9637 74.0957 51.8739 74.43 51.6934C74.6705 51.5637 74.8635 51.3865 75.0334 51.1881V51.5371C75.0334 51.6501 75.0665 51.741 75.1327 51.8064C75.1989 51.8728 75.2849 51.9061 75.392 51.9061C75.499 51.9061 75.5872 51.8728 75.6567 51.8064C75.7262 51.741 75.7604 51.6501 75.7604 51.5371V47.0843C75.7604 46.978 75.7262 46.8904 75.6567 46.824C75.5872 46.7575 75.499 46.7242 75.392 46.7242L75.3908 46.7265Z" fill="#232427"/>
<path d="M80.3244 46.7929C80.1667 46.7109 79.9438 46.6699 79.6548 46.6699C79.2907 46.6699 78.9587 46.7586 78.6597 46.9347C78.4115 47.0821 78.2118 47.2859 78.0419 47.5241V47.0865C78.0419 46.9735 78.011 46.8849 77.947 46.8217C77.8841 46.7586 77.7959 46.7264 77.6822 46.7264C77.5686 46.7264 77.4815 46.7574 77.4186 46.8217C77.3557 46.886 77.3237 46.9735 77.3237 47.0865V51.5482C77.3237 51.6623 77.3546 51.7498 77.4186 51.8141C77.4826 51.8783 77.5697 51.9094 77.6822 51.9094C77.7948 51.9094 77.8841 51.8783 77.947 51.8141C78.0099 51.7509 78.0419 51.6623 78.0419 51.5482V48.7152C78.0419 48.4194 78.1224 48.1634 78.2824 47.9485C78.4424 47.7335 78.6597 47.574 78.9333 47.4699C79.2069 47.3657 79.5191 47.3291 79.8721 47.3613C79.9791 47.3668 80.0751 47.3735 80.1601 47.3801C80.245 47.3868 80.3167 47.3746 80.3774 47.3424C80.437 47.3114 80.48 47.2472 80.5054 47.153C80.5429 46.9957 80.4833 46.8749 80.3255 46.7929H80.3244Z" fill="#232427"/>
<path d="M85.1532 46.9477C84.8013 46.7615 84.4019 46.6685 83.9551 46.6685C83.5458 46.6685 83.1752 46.7582 82.842 46.9388C82.6026 47.0684 82.4095 47.2435 82.2385 47.4407V47.095C82.2385 46.982 82.2054 46.8912 82.1393 46.8247C82.0731 46.7582 81.987 46.725 81.88 46.725C81.7675 46.725 81.677 46.7582 81.6108 46.8247C81.5446 46.8912 81.5115 46.9809 81.5115 47.095V51.5467C81.5115 51.6542 81.5446 51.7417 81.6108 51.8071C81.677 51.8736 81.7664 51.9068 81.88 51.9068C81.987 51.9068 82.0731 51.8736 82.1393 51.8071C82.2054 51.7417 82.2385 51.6542 82.2385 51.5467V48.7436C82.2385 48.4777 82.3102 48.2417 82.4559 48.0323C82.6004 47.824 82.7968 47.6601 83.045 47.5404C83.2932 47.4207 83.5712 47.3609 83.8801 47.3609C84.189 47.3609 84.488 47.4241 84.7428 47.5504C84.9977 47.6767 85.1984 47.8661 85.3463 48.1188C85.4941 48.3714 85.568 48.6938 85.568 49.0849V51.5478C85.568 51.6486 85.6022 51.734 85.6717 51.8038C85.7412 51.8736 85.8284 51.9079 85.9354 51.9079C86.0358 51.9079 86.1207 51.8724 86.1902 51.8038C86.2597 51.7351 86.2939 51.6498 86.2939 51.5478V49.0849C86.2939 48.5675 86.1913 48.1276 85.9872 47.7686C85.7831 47.4086 85.504 47.1349 85.1521 46.9488L85.1532 46.9477Z" fill="#232427"/>
<path d="M88.2851 46.7262C88.1715 46.7262 88.0822 46.7594 88.016 46.8259C87.9498 46.8924 87.9167 46.9821 87.9167 47.0962V51.5391C87.9167 51.6521 87.9498 51.7429 88.016 51.8083C88.0822 51.8748 88.1715 51.908 88.2851 51.908C88.3922 51.908 88.4782 51.8748 88.5444 51.8083C88.6106 51.7429 88.6437 51.6521 88.6437 51.5391V47.0962C88.6437 46.9832 88.6106 46.8924 88.5444 46.8259C88.4782 46.7594 88.3922 46.7262 88.2851 46.7262Z" fill="#232427"/>
<path d="M92.633 51.178H92.3792C92.0836 51.178 91.842 51.076 91.6533 50.87C91.4647 50.665 91.3698 50.4013 91.3698 50.0789V47.5495H92.4355C92.5304 47.5495 92.6087 47.5195 92.6716 47.4597C92.7345 47.3999 92.7654 47.3257 92.7654 47.237C92.7654 47.1417 92.7345 47.0653 92.6716 47.0044C92.6087 46.9445 92.5304 46.9146 92.4355 46.9146H91.3698V45.4466C91.3698 45.3391 91.3345 45.2505 91.2661 45.1807C91.1977 45.1109 91.1094 45.0765 91.0024 45.0765C90.8954 45.0765 90.8083 45.112 90.7432 45.1807C90.677 45.2505 90.6439 45.3391 90.6439 45.4466V46.9146H90.0305C89.9356 46.9146 89.8573 46.9445 89.7944 47.0044C89.7315 47.0642 89.7007 47.1417 89.7007 47.237C89.7007 47.3257 89.7315 47.3999 89.7944 47.4597C89.8573 47.5195 89.9356 47.5495 90.0305 47.5495H90.6439V50.0789C90.6439 50.4323 90.72 50.747 90.87 51.0217C91.0212 51.2965 91.2264 51.5137 91.4879 51.671C91.7482 51.8294 92.0461 51.9081 92.3792 51.9081H92.5767C92.6903 51.9081 92.7841 51.8749 92.8602 51.8084C92.9353 51.743 92.9728 51.6555 92.9728 51.548C92.9728 51.4405 92.9408 51.3519 92.8779 51.2832C92.815 51.2134 92.7334 51.1791 92.6319 51.1791L92.633 51.178Z" fill="#232427"/>
<path d="M98.3399 46.7265C98.2329 46.7265 98.1468 46.7597 98.0806 46.8262C98.0145 46.8927 97.9813 46.9802 97.9813 47.0865V49.8907C97.9813 50.1566 97.9096 50.3926 97.764 50.6009C97.6195 50.8092 97.4231 50.9743 97.1749 51.094C96.9267 51.2136 96.6487 51.2734 96.3398 51.2734C96.0309 51.2734 95.7319 51.2103 95.4771 51.084C95.2222 50.9577 95.0214 50.7682 94.8736 50.5156C94.7258 50.263 94.6519 49.9406 94.6519 49.5495V47.0865C94.6519 46.9857 94.6166 46.9004 94.5482 46.8306C94.4787 46.7608 94.3904 46.7265 94.2845 46.7265C94.1841 46.7265 94.0992 46.7608 94.0297 46.8306C93.9602 46.9004 93.9259 46.9857 93.9259 47.0865V49.5495C93.9259 50.0669 94.0274 50.5056 94.2326 50.8657C94.4367 51.2258 94.7147 51.4995 95.0667 51.6845C95.4186 51.8706 95.818 51.9637 96.2648 51.9637C96.6741 51.9637 97.0447 51.8739 97.3779 51.6934C97.6184 51.5637 97.8114 51.3865 97.9813 51.1881V51.5371C97.9813 51.6501 98.0145 51.741 98.0806 51.8064C98.1468 51.8728 98.2329 51.9061 98.3399 51.9061C98.4469 51.9061 98.5352 51.8728 98.6036 51.8064C98.6731 51.741 98.7073 51.6501 98.7073 51.5371V47.0843C98.7073 46.978 98.6731 46.8904 98.6036 46.824C98.5341 46.7575 98.4469 46.7242 98.3399 46.7242V46.7265Z" fill="#232427"/>
<path d="M103.273 46.7929C103.116 46.7109 102.893 46.6699 102.604 46.6699C102.239 46.6699 101.908 46.7586 101.609 46.9347C101.36 47.0821 101.161 47.2859 100.991 47.5241V47.0865C100.991 46.9735 100.959 46.8849 100.896 46.8217C100.833 46.7586 100.745 46.7264 100.631 46.7264C100.518 46.7264 100.43 46.7574 100.368 46.8217C100.305 46.8849 100.273 46.9735 100.273 47.0865V51.5482C100.273 51.6623 100.304 51.7498 100.368 51.8141C100.43 51.8772 100.519 51.9094 100.631 51.9094C100.744 51.9094 100.832 51.8783 100.896 51.8141C100.959 51.7509 100.991 51.6623 100.991 51.5482V48.7152C100.991 48.4194 101.071 48.1634 101.231 47.9485C101.391 47.7335 101.609 47.574 101.882 47.4699C102.156 47.3657 102.468 47.3291 102.821 47.3613C102.928 47.3668 103.024 47.3735 103.109 47.3801C103.194 47.3868 103.266 47.3746 103.326 47.3424C103.386 47.3114 103.428 47.2472 103.453 47.153C103.491 46.9957 103.431 46.8749 103.274 46.7929H103.273Z" fill="#232427"/>
<path d="M107.532 47.0056C107.177 46.7873 106.76 46.6787 106.282 46.6787C105.804 46.6787 105.371 46.7928 105 47.02C104.628 47.2471 104.338 47.5584 104.127 47.9528C103.917 48.3473 103.812 48.8037 103.812 49.3223C103.812 49.8408 103.923 50.2884 104.147 50.6861C104.37 51.0839 104.678 51.3952 105.072 51.619C105.464 51.8439 105.916 51.9558 106.425 51.9558C106.721 51.9558 107.029 51.8971 107.35 51.7808C107.67 51.6644 107.934 51.5171 108.142 51.3409C108.218 51.2778 108.253 51.2024 108.25 51.1138C108.247 51.0252 108.204 50.9432 108.123 50.8678C108.06 50.8169 107.984 50.7936 107.897 50.7969C107.809 50.8002 107.73 50.8302 107.661 50.8867C107.523 51.0063 107.339 51.106 107.109 51.1847C106.88 51.2634 106.651 51.3032 106.425 51.3032C106.048 51.3032 105.715 51.2179 105.426 51.0473C105.137 50.8767 104.908 50.644 104.742 50.3471C104.61 50.1133 104.533 49.8496 104.506 49.5605H108.313C108.413 49.5605 108.495 49.5305 108.558 49.4707C108.621 49.4109 108.653 49.33 108.653 49.2292C108.653 48.7373 108.554 48.2985 108.36 47.913C108.165 47.5274 107.89 47.226 107.535 47.0078L107.532 47.0056ZM104.528 48.9522C104.561 48.7162 104.614 48.4924 104.712 48.2941C104.86 47.9938 105.068 47.7589 105.34 47.5883C105.61 47.4177 105.924 47.3335 106.283 47.3335C106.641 47.3335 106.938 47.4155 107.193 47.5795C107.448 47.7434 107.644 47.9706 107.783 48.2608C107.883 48.4691 107.931 48.7051 107.955 48.9522H104.528Z" fill="#232427"/>
<path d="M12.4575 25.7738C16.0264 25.7738 19.4584 26.3677 22.2099 26.8463L23.3009 21.7554C20.1182 21.0252 16.5724 20.5222 12.912 20.5222C3.2964 20.5222 0 23.5125 0 28.5581C0 33.6037 3.2964 36.6172 12.912 36.6172C16.5713 36.6172 20.1182 36.1142 23.3009 35.3841V28.3986H16.9354V31.1839C15.5034 31.298 13.9799 31.3667 12.4575 31.3667C7.0694 31.3667 6.13718 30.5446 6.13718 28.5581C6.13718 26.5716 7.0694 25.7727 12.4575 25.7727V25.7738Z" fill="#232427"/>
<path d="M44.9922 32.0982L45.4015 32.0528C48.6748 31.6872 50.8801 30.0208 50.8801 26.4821C50.8801 22.0071 47.8109 20.7518 43.9696 20.7518H27.9211V36.3217H34.0594V32.4406H38.3333L43.2436 36.3217H50.9044L46.0855 32.6688L44.9944 32.0982H44.9922ZM43.2878 27.8748H34.0583V26.0024H43.2878C44.1516 26.0024 44.5156 26.1619 44.5156 26.9607C44.5156 27.6454 44.1516 27.8737 43.2878 27.8737V27.8748Z" fill="#232427"/>
<path d="M54.1699 28.5376C54.1699 34.0851 58.0124 36.6644 67.3092 36.6644C76.6059 36.6644 80.4484 34.0851 80.4484 28.5376C80.4484 22.9902 76.607 20.4109 67.3092 20.4109C58.0113 20.4109 54.1699 22.9902 54.1699 28.5376ZM74.1965 28.5376C74.1965 30.82 72.833 31.4138 67.3092 31.4138C61.7854 31.4138 60.3082 30.82 60.3082 28.5376C60.3082 26.2553 61.7854 25.6614 67.3092 25.6614C72.833 25.6614 74.1965 26.2553 74.1965 28.5376Z" fill="#232427"/>
<path d="M95.847 36.5954C102.826 36.5954 107.441 34.5856 107.441 29.335V20.7518H101.302V27.9889C101.302 30.6601 99.7336 31.3448 95.847 31.3448C91.9604 31.3448 90.3916 30.6601 90.3916 27.9889V20.7518H84.2534V29.335C84.2534 34.5856 88.8681 36.5954 95.847 36.5954Z" fill="#232427"/>
<path d="M128.088 20.7518H112.04V36.3217H118.178V33.3535H128.089C131.931 33.3535 135 31.6639 135 26.7092C135 22.0526 131.931 20.7518 128.089 20.7518H128.088ZM127.315 28.103H118.177V26.0024H127.315C128.11 26.0024 128.633 26.1619 128.633 27.0516C128.633 27.8515 128.11 28.1019 127.315 28.1019V28.103Z" fill="#232427"/>
<path d="M31.2539 15.57V0.0012207H23.9341L15.9325 10.5255L7.9309 0.0012207H0.474289V15.57H6.61257V7.30697L12.7497 15.57H18.9785L25.1167 7.32913V15.57H31.2539Z" fill="#232427"/>
<path d="M59.9914 15.5699L50.4663 0H42.2595L32.7344 15.5699H40.0994L41.5766 12.9906H51.0554L52.5326 15.5699H59.9892H59.9914ZM43.9882 8.76712L46.3292 4.72646L48.6482 8.76712H43.9882Z" fill="#232427"/>
<path d="M77.014 0.00109863L70.8073 10.5254L64.5797 0.00109863H57.1231L66.6482 15.5699H74.855L84.3791 0.00109863H77.014Z" fill="#232427"/>
<path d="M86.0548 15.5699H107.241V10.7758H92.1931V9.70332H106.81V5.82221H92.1931V4.79404H107.241V0.00109863H86.0548V15.5699Z" fill="#232427"/>
<path d="M116.339 6.46149L127.705 15.5699H134.526V0.00109863H128.387V8.85907L117.181 0.00109863H110.202V15.5699H116.339V6.46149Z" fill="#232427"/>
</svg>
