<svg width="56" height="56" viewBox="0 0 56 56" fill="none" xmlns="http://www.w3.org/2000/svg">
<path d="M23.8003 24.6665C23.1098 24.6665 22.5491 24.4077 22.118 23.8903C21.687 23.3727 21.5343 22.7849 21.6599 22.1268L22.3779 17.7519C22.6291 16.3639 23.2857 15.2249 24.3477 14.335C25.4097 13.445 26.6289 13 28.0053 13C29.4139 13 30.6491 13.445 31.711 14.335C32.773 15.2249 33.4296 16.3639 33.6809 17.7519L34.3988 22.1268C34.5245 22.7849 34.3717 23.3727 33.9407 23.8903C33.5097 24.4077 32.9489 24.6665 32.2585 24.6665H23.8003ZM24.3566 22.0191H31.7021L31.0739 18.1856C30.9303 17.4387 30.577 16.829 30.0141 16.3564C29.4511 15.8837 28.7892 15.6474 28.0285 15.6474C27.2678 15.6474 26.607 15.8853 26.0463 16.3611C25.4855 16.8369 25.1332 17.4426 24.9893 18.1781L24.3566 22.0191ZM8.6497 27.9836C7.95989 28.0038 7.36098 27.8664 6.85297 27.5714C6.34493 27.2765 6.0162 26.8114 5.86679 26.1762C5.79679 25.8996 5.79096 25.6282 5.84929 25.362C5.90762 25.0958 5.98766 24.835 6.08939 24.5798C6.08939 24.6116 6.06995 24.5478 6.03106 24.3883C6.00111 24.3494 5.85244 23.9923 5.58504 23.3169C5.51442 22.9513 5.54609 22.6211 5.68007 22.3265C5.814 22.0318 6.01325 21.7508 6.27781 21.4834C6.29278 21.4834 6.3242 21.4515 6.37208 21.3876C6.43955 20.8241 6.67492 20.3539 7.0782 19.9772C7.48152 19.6004 7.98859 19.4121 8.59942 19.4121C8.60124 19.4121 8.87327 19.4554 9.4155 19.5422L9.56244 19.5063C9.71201 19.3732 9.90369 19.2636 10.1375 19.1776C10.3713 19.0916 10.6072 19.0486 10.845 19.0486C11.1726 19.0486 11.4693 19.1054 11.735 19.2191C12.0007 19.3328 12.2083 19.4956 12.3577 19.7076C12.3876 19.7076 12.41 19.7152 12.425 19.7304C12.4399 19.7455 12.4624 19.7531 12.4922 19.7531C12.8995 19.7871 13.2591 19.9134 13.5711 20.1321C13.883 20.3507 14.1233 20.6571 14.2919 21.0513C14.3397 21.2692 14.3577 21.4708 14.3457 21.656C14.3337 21.8412 14.2963 22.0206 14.2335 22.1941C14.2335 22.2569 14.253 22.3152 14.2919 22.3691C14.4979 22.5784 14.6571 22.8068 14.7695 23.0545C14.8818 23.3021 14.938 23.5662 14.938 23.8469C14.938 23.8877 14.8557 24.1916 14.6912 24.7586C14.6673 24.8042 14.6673 24.8722 14.6912 24.9627C14.745 25.1182 14.7645 25.353 14.7496 25.6671C14.7496 26.2809 14.4867 26.8204 13.9609 27.2857C13.4352 27.751 12.8108 27.9836 12.0875 27.9836H8.6497ZM46.441 28.0094C45.4608 28.0094 44.6207 27.6571 43.9207 26.9525C43.2207 26.2478 42.8707 25.4031 42.8707 24.4182C42.8707 24.0601 42.9324 23.7208 43.0559 23.4003C43.1793 23.0797 43.321 22.7779 43.4809 22.4947L42.2092 21.3875C41.9233 21.1235 41.8708 20.8233 42.0518 20.4867C42.2327 20.1502 42.4949 19.9819 42.8382 19.9819H46.4288C47.4162 19.9819 48.2591 20.3316 48.9576 21.0311C49.656 21.7306 50.0052 22.5714 50.0052 23.5536V24.4465C50.0052 25.4218 49.6562 26.2594 48.9583 26.9594C48.2603 27.6594 47.4211 28.0094 46.441 28.0094ZM1.16699 37.0062V34.5876C1.16699 33.14 1.94292 31.9622 3.49478 31.0542C5.04668 30.1461 7.06074 29.6921 9.53695 29.6921C9.97939 29.6921 10.4113 29.7056 10.8328 29.7325C11.2543 29.7594 11.6564 29.8065 12.0393 29.8736C11.7731 30.4706 11.5697 31.0853 11.4291 31.7178C11.2885 32.3504 11.2182 33.016 11.2182 33.7148V37.0062H1.16699ZM15.1669 37.0062V33.7979C15.1669 31.5692 16.3528 29.7818 18.7246 28.4357C21.0963 27.0896 24.1902 26.4165 28.0064 26.4165C31.8582 26.4165 34.959 27.0896 37.3088 28.4357C39.6586 29.7818 40.8335 31.5692 40.8335 33.7979V37.0062H15.1669ZM46.5098 29.6921C49.0196 29.6921 51.0343 30.1461 52.554 31.0542C54.0737 31.9622 54.8335 33.14 54.8335 34.5876V37.0062H44.7822V33.7148C44.7822 33.016 44.7216 32.3504 44.6005 31.7178C44.4793 31.0853 44.2782 30.4712 43.997 29.8757C44.3948 29.8071 44.8036 29.7594 45.2233 29.7325C45.643 29.7056 46.0718 29.6921 46.5098 29.6921ZM27.989 29.0639C24.9152 29.0639 22.4361 29.5119 20.5515 30.4078C18.6669 31.3037 17.747 32.4637 17.7919 33.8876V34.3588H38.2085V33.8517C38.2534 32.4517 37.3433 31.3037 35.4781 30.4078C33.6129 29.5119 31.1165 29.0639 27.989 29.0639Z" fill="#A8A198"/>
</svg>
