<svg width="56" height="56" viewBox="0 0 56 56" fill="none" xmlns="http://www.w3.org/2000/svg">
<path d="M27.5066 47.452C27.7758 47.452 28.063 47.3921 28.3682 47.2725C28.6733 47.1528 28.9186 46.9927 29.1041 46.7923L48.1566 27.7039C48.707 27.1535 49.1311 26.5542 49.4287 25.9061C49.7264 25.2579 49.8752 24.5798 49.8752 23.8719C49.8752 23.1509 49.7264 22.4412 49.4287 21.7427C49.1311 21.0442 48.707 20.4197 48.1566 19.8693L38.397 10.1097C37.8466 9.55926 37.2445 9.14643 36.5909 8.87122C35.9373 8.596 35.25 8.45839 34.5291 8.45839C33.8211 8.45839 33.1393 8.596 32.4837 8.87122C31.828 9.14643 31.2325 9.55926 30.697 10.1097L29.0636 11.7431L33.6765 16.3918C34.1371 16.8764 34.5357 17.4485 34.8723 18.1081C35.2088 18.7677 35.3771 19.4729 35.3771 20.2238C35.3771 21.5371 34.8857 22.6753 33.903 23.6385C32.9203 24.6018 31.7799 25.0834 30.4816 25.0834C29.644 25.0834 28.9306 24.96 28.3412 24.7132C27.752 24.4664 27.2136 24.1038 26.7263 23.6253L22.3823 19.268L11.981 29.6693C11.7567 29.8936 11.5906 30.1469 11.4829 30.4291C11.3752 30.7114 11.3214 30.9977 11.3214 31.2882C11.3214 31.8542 11.5054 32.3175 11.8733 32.678C12.2413 33.0384 12.7014 33.2187 13.2539 33.2187C13.56 33.2187 13.8537 33.1491 14.1348 33.01C14.4161 32.8709 14.6494 32.7086 14.8349 32.5232L22.5932 24.7648L24.4598 26.6314L16.7374 34.3314C16.513 34.5708 16.347 34.8333 16.2393 35.1189C16.1316 35.4046 16.0778 35.694 16.0778 35.9872C16.0778 36.5137 16.2715 36.9707 16.6589 37.3581C17.0463 37.7455 17.5032 37.9392 18.0297 37.9392C18.3229 37.9392 18.6101 37.8794 18.8913 37.7597C19.1725 37.64 19.4058 37.48 19.5913 37.2795L27.6188 29.2519L29.4854 31.1186L21.4938 39.0878C21.3083 39.2883 21.152 39.5378 21.0249 39.8365C20.8978 40.1351 20.8342 40.4375 20.8342 40.7436C20.8342 41.2701 21.0279 41.7271 21.4153 42.1144C21.8027 42.5019 22.2596 42.6956 22.7861 42.6956C23.0793 42.6956 23.3567 42.6417 23.6185 42.534C23.8803 42.4263 24.1233 42.2603 24.3477 42.0359L32.3752 34.0084L34.2419 35.875L26.2143 43.9025C25.9899 44.1269 25.8239 44.3894 25.7162 44.69C25.6085 44.9907 25.5546 45.2682 25.5546 45.5225C25.5546 46.1118 25.7364 46.5807 26.0999 46.9292C26.4633 47.2777 26.9322 47.452 27.5066 47.452ZM27.5103 50.0993C26.2993 50.0993 25.2406 49.6454 24.3342 48.7375C23.4278 47.8296 22.9521 46.6957 22.9073 45.336C21.5851 45.2659 20.4805 44.806 19.5935 43.9564C18.7066 43.1068 18.2257 41.9835 18.1509 40.5865C16.7689 40.4968 15.6515 40.0174 14.799 39.1484C13.9464 38.2794 13.4902 37.1733 13.4304 35.8301C12.0813 35.7554 10.9513 35.2992 10.0404 34.4616C9.12948 33.624 8.67403 32.5471 8.67403 31.2309C8.67403 30.6146 8.79729 29.9974 9.04381 29.3792C9.29036 28.7611 9.63525 28.2236 10.0785 27.7667L22.3823 15.4629L28.3278 21.4084C28.6239 21.7046 28.9609 21.9439 29.3389 22.1264C29.7168 22.3089 30.1097 22.4001 30.5175 22.4001C31.0679 22.4001 31.5742 22.1728 32.0364 21.718C32.4986 21.2633 32.7297 20.7503 32.7297 20.179C32.7297 19.8768 32.6504 19.5649 32.4919 19.2434C32.3333 18.9218 32.106 18.6054 31.8098 18.2943L23.6252 10.1097C23.0748 9.55926 22.469 9.14643 21.8079 8.87122C21.1468 8.596 20.4558 8.45839 19.7348 8.45839C19.0268 8.45839 18.3525 8.596 17.7118 8.87122C17.0712 9.14643 16.4768 9.55648 15.9286 10.1013L7.79897 18.2359C7.22462 18.8103 6.80806 19.4325 6.5493 20.1026C6.29053 20.7727 6.15666 21.5243 6.14767 22.3574C6.12376 23.0559 6.25088 23.735 6.52906 24.3946C6.80727 25.0542 7.1498 25.6533 7.55666 26.1917L5.60926 28.1167C5.01095 27.3808 4.51362 26.4923 4.11726 25.4513C3.72091 24.4103 3.51524 23.3498 3.50027 22.2699C3.48534 21.1332 3.69026 20.0525 4.11505 19.028C4.53983 18.0034 5.1456 17.0977 5.93236 16.311L14.0002 8.24308C14.8109 7.43241 15.7081 6.83039 16.6917 6.43703C17.6753 6.04363 18.7051 5.84692 19.7811 5.84692C20.8571 5.84692 21.8812 6.04363 22.8534 6.43703C23.8256 6.83039 24.7171 7.43241 25.5278 8.24308L27.1611 9.87647L28.7945 8.24308C29.6052 7.43241 30.4986 6.83039 31.4747 6.43703C32.4509 6.04363 33.4769 5.84692 34.5529 5.84692C35.6289 5.84692 36.6567 6.04363 37.6364 6.43703C38.6161 6.83039 39.5113 7.43241 40.322 8.24308L50.0232 17.9443C50.8339 18.755 51.4531 19.6792 51.8809 20.717C52.3087 21.7549 52.5226 22.8071 52.5226 23.8737C52.5226 24.9404 52.3087 25.9599 51.8809 26.9321C51.4531 27.9043 50.8339 28.7958 50.0232 29.6064L30.9707 48.6589C30.4951 49.1495 29.962 49.5123 29.3714 49.7471C28.7808 49.9819 28.1605 50.0993 27.5103 50.0993Z" fill="#A8A198"/>
</svg>
