<svg width="56" height="56" viewBox="0 0 56 56" fill="none" xmlns="http://www.w3.org/2000/svg">
<path d="M34.6411 38.473H36.9969V34.771H39.1193C39.7216 34.771 40.2327 34.5646 40.6524 34.1517C41.0722 33.7388 41.2821 33.2363 41.2821 32.6441V23.3917C41.2821 22.7893 41.0722 22.2783 40.6524 21.8585C40.2327 21.4387 39.7216 21.2288 39.1193 21.2288H32.7565C32.1672 21.2288 31.616 21.4387 31.103 21.8585C30.59 22.2783 30.3334 22.7893 30.3334 23.3917V32.6441C30.3334 33.2363 30.59 33.7388 31.103 34.1517C31.616 34.5646 32.1672 34.771 32.7565 34.771H34.6411V38.473ZM14.7181 34.771H17.0739V29.714H23.311V34.771H25.6668V21.2288H23.311V27.3583H17.0739V21.2288H14.7181V34.771ZM33.0482 32.4154C32.9584 32.4154 32.8761 32.378 32.8013 32.3031C32.7266 32.2283 32.6892 32.1461 32.6892 32.0563V23.9436C32.6892 23.8538 32.7266 23.7715 32.8013 23.6967C32.8761 23.6219 32.9584 23.5845 33.0482 23.5845H38.5674C38.6571 23.5845 38.7394 23.6219 38.8142 23.6967C38.889 23.7715 38.9263 23.8538 38.9263 23.9436V32.0563C38.9263 32.1461 38.889 32.2283 38.8142 32.3031C38.7394 32.378 38.6571 32.4154 38.5674 32.4154H33.0482ZM9.19892 45.4999C8.2839 45.4999 7.49425 45.1677 6.82995 44.5034C6.16565 43.8391 5.8335 43.0495 5.8335 42.1345V13.8654C5.8335 12.9504 6.16565 12.1607 6.82995 11.4965C7.49425 10.8322 8.2839 10.5 9.19892 10.5H46.8013C47.7163 10.5 48.506 10.8322 49.1703 11.4965C49.8346 12.1607 50.1667 12.9504 50.1667 13.8654V42.1345C50.1667 43.0495 49.8346 43.8391 49.1703 44.5034C48.506 45.1677 47.7163 45.4999 46.8013 45.4999H9.19892ZM9.19892 42.8525H46.8013C46.9808 42.8525 47.1454 42.7777 47.295 42.6281C47.4445 42.4785 47.5193 42.314 47.5193 42.1345V13.8654C47.5193 13.6859 47.4445 13.5214 47.295 13.3717C47.1454 13.2222 46.9808 13.1474 46.8013 13.1474H9.19892C9.01941 13.1474 8.85485 13.2222 8.70525 13.3717C8.55568 13.5214 8.4809 13.6859 8.4809 13.8654V42.1345C8.4809 42.314 8.55568 42.4785 8.70525 42.6281C8.85485 42.7777 9.01941 42.8525 9.19892 42.8525Z" fill="#A8A198"/>
</svg>
