<svg width="16" height="20" viewBox="0 0 16 20" fill="none" xmlns="http://www.w3.org/2000/svg">
<path d="M7.88 19.24C6.568 19.24 5.44 19.048 4.496 18.664C3.568 18.264 2.856 17.696 2.36 16.96C1.864 16.208 1.616 15.32 1.616 14.296C1.616 13.576 1.8 12.904 2.168 12.28C2.536 11.64 3.072 11.112 3.776 10.696C4.496 10.28 5.368 10.048 6.392 10L7.76 8.968C8.64 8.968 9.352 8.848 9.896 8.608C10.456 8.368 10.888 8.056 11.192 7.672C11.512 7.288 11.728 6.864 11.84 6.4C11.968 5.936 12.032 5.488 12.032 5.056C12.032 4.112 11.68 3.416 10.976 2.968C10.272 2.504 9.392 2.28 8.336 2.296C7.6 2.296 6.952 2.392 6.392 2.584C5.832 2.76 5.344 3.008 4.928 3.328C4.528 3.648 4.176 4.04 3.872 4.504C3.696 4.808 3.432 5.016 3.08 5.128C2.728 5.24 2.4 5.2 2.096 5.008C1.824 4.832 1.664 4.592 1.616 4.288C1.584 3.968 1.68 3.632 1.904 3.28C2.352 2.624 2.864 2.056 3.44 1.576C4.032 1.096 4.72 0.719999 5.504 0.447999C6.304 0.175999 7.224 0.0399995 8.264 0.0399995C9.432 0.0399995 10.48 0.231999 11.408 0.615999C12.352 0.999999 13.096 1.56 13.64 2.296C14.2 3.032 14.48 3.928 14.48 4.984C14.48 5.496 14.384 6.04 14.192 6.616C14.016 7.176 13.736 7.704 13.352 8.2C12.968 8.696 12.48 9.096 11.888 9.4C11.296 9.704 10.592 9.856 9.776 9.856L8.672 11.2C7.584 11.2 6.696 11.352 6.008 11.656C5.336 11.96 4.84 12.36 4.52 12.856C4.216 13.336 4.064 13.84 4.064 14.368C4.064 15.2 4.4 15.848 5.072 16.312C5.744 16.76 6.68 16.984 7.88 16.984C8.616 16.984 9.32 16.888 9.992 16.696C10.68 16.488 11.28 16.216 11.792 15.88C12.32 15.528 12.68 15.152 12.872 14.752C13.016 14.448 13.224 14.224 13.496 14.08C13.784 13.92 14.072 13.872 14.36 13.936C14.776 14.016 15.056 14.2 15.2 14.488C15.36 14.776 15.368 15.088 15.224 15.424C14.888 16.192 14.336 16.864 13.568 17.44C12.816 18.016 11.944 18.464 10.952 18.784C9.96 19.088 8.936 19.24 7.88 19.24ZM1.232 11.2C0.896 11.2 0.616 11.096 0.392 10.888C0.184 10.664 0.08 10.384 0.08 10.048C0.08 9.712 0.184 9.44 0.392 9.232C0.616 9.008 0.896 8.896 1.232 8.896H14.792C15.128 8.896 15.4 9.008 15.608 9.232C15.832 9.44 15.944 9.712 15.944 10.048C15.944 10.384 15.832 10.664 15.608 10.888C15.4 11.096 15.128 11.2 14.792 11.2H1.232Z" fill="#979797"/>
</svg>
