<svg width="28" height="28" viewBox="0 0 28 28" fill="none" xmlns="http://www.w3.org/2000/svg">
<path d="M13.9999 18.6666C15.2376 18.6666 16.4246 18.1749 17.2998 17.2998C18.1749 16.4246 18.6666 15.2376 18.6666 13.9999C18.6666 12.7622 18.1749 11.5753 17.2998 10.7001C16.4246 9.82492 15.2376 9.33325 13.9999 9.33325C12.7622 9.33325 11.5753 9.82492 10.7001 10.7001C9.82492 11.5753 9.33325 12.7622 9.33325 13.9999C9.33325 15.2376 9.82492 16.4246 10.7001 17.2998C11.5753 18.1749 12.7622 18.6666 13.9999 18.6666Z" stroke="#232427" stroke-width="1.5" strokeLinecap="round" strokeLinejoin="round"/>
<path d="M3.5 18.6667V9.33333C3.5 7.78624 4.11458 6.30251 5.20854 5.20854C6.30251 4.11458 7.78624 3.5 9.33333 3.5H18.6667C20.2138 3.5 21.6975 4.11458 22.7915 5.20854C23.8854 6.30251 24.5 7.78624 24.5 9.33333V18.6667C24.5 20.2138 23.8854 21.6975 22.7915 22.7915C21.6975 23.8854 20.2138 24.5 18.6667 24.5H9.33333C7.78624 24.5 6.30251 23.8854 5.20854 22.7915C4.11458 21.6975 3.5 20.2138 3.5 18.6667Z" stroke="#232427" stroke-width="1.5"/>
<path d="M20.4167 7.59511L20.4284 7.58228" stroke="#232427" stroke-width="1.5" strokeLinecap="round" strokeLinejoin="round"/>
</svg>
