<svg width="193" height="75" viewBox="0 0 193 75" fill="none" xmlns="http://www.w3.org/2000/svg">
<path d="M8.83688 64.1953C8.68389 64.1953 8.55773 64.2464 8.45995 64.3455C8.36058 64.4462 8.3117 64.574 8.3117 64.729V68.9925H1.73012V64.729C1.73012 64.574 1.68119 64.4462 1.58183 64.3455C1.48247 64.2449 1.35789 64.1953 1.2049 64.1953C1.05192 64.1953 0.925719 64.2464 0.827934 64.3455C0.728571 64.4462 0.679688 64.574 0.679688 64.729V74.3346C0.679688 74.4896 0.728571 74.6174 0.827934 74.7165C0.927296 74.8172 1.05192 74.8667 1.2049 74.8667C1.35789 74.8667 1.48405 74.8156 1.58183 74.7165C1.67962 74.6174 1.73012 74.4896 1.73012 74.3346V69.9481H8.3117V74.3346C8.3117 74.4896 8.36058 74.6174 8.45995 74.7165C8.55931 74.8172 8.68389 74.8667 8.83688 74.8667C8.98986 74.8667 9.11606 74.8156 9.21542 74.7165C9.31479 74.6158 9.36367 74.4896 9.36367 74.3346V64.729C9.36367 64.574 9.31479 64.4462 9.21542 64.3455C9.11606 64.2449 8.98986 64.1953 8.83688 64.1953Z" fill="#232427"/>
<path d="M17.0162 67.8154C16.4547 67.4878 15.8128 67.3232 15.0936 67.3232C14.3744 67.3232 13.7325 67.4878 13.1647 67.8154C12.5985 68.143 12.1537 68.5936 11.8304 69.1689C11.507 69.7426 11.3446 70.3978 11.3446 71.136C11.3446 71.8743 11.507 72.5167 11.8304 73.0904C12.1537 73.6641 12.5985 74.1147 13.1647 74.4423C13.7309 74.7699 14.3744 74.9345 15.0936 74.9345C15.8128 74.9345 16.4531 74.7715 17.0162 74.4423C17.5776 74.1147 18.0224 73.6641 18.3504 73.0904C18.6785 72.5167 18.8425 71.8663 18.8425 71.136C18.8347 70.3978 18.6674 69.7426 18.3441 69.1689C18.0208 68.5952 17.5776 68.143 17.0162 67.8154ZM17.4672 72.5982C17.2338 73.0265 16.9105 73.3637 16.4973 73.6097C16.084 73.8558 15.6156 73.9773 15.0952 73.9773C14.5747 73.9773 14.1062 73.8542 13.693 73.6097C13.2798 73.3637 12.9533 73.0265 12.7152 72.5982C12.477 72.17 12.3571 71.6826 12.3571 71.136C12.3571 70.5895 12.4754 70.1005 12.7152 69.6675C12.9533 69.2344 13.2798 68.8957 13.693 68.6496C14.1062 68.4035 14.5747 68.2804 15.0952 68.2804C15.6156 68.2804 16.084 68.4035 16.4973 68.6496C16.9105 68.8957 17.2338 69.2344 17.4672 69.6675C17.7006 70.1005 17.8174 70.5895 17.8174 71.136C17.8174 71.6826 17.7006 72.17 17.4672 72.5982Z" fill="#232427"/>
<path d="M25.1797 70.4647C25.328 70.4104 25.4731 70.3481 25.6119 70.2746C26.1244 70.0013 26.5266 69.6242 26.8184 69.14C27.1102 68.6574 27.2569 68.1061 27.2569 67.4877C27.2569 66.8692 27.1102 66.27 26.8184 65.773C26.5266 65.2777 26.1244 64.8893 25.6119 64.6113C25.0993 64.3332 24.5157 64.1942 23.8596 64.1942H21.3377C21.1847 64.1942 21.0585 64.2453 20.9607 64.3444C20.8614 64.4451 20.8125 64.5729 20.8125 64.7279V74.3335C20.8125 74.4885 20.8614 74.6163 20.9607 74.7154C21.0601 74.8161 21.1847 74.8656 21.3377 74.8656C21.4907 74.8656 21.6169 74.8145 21.7146 74.7154C21.8124 74.6163 21.8629 74.4885 21.8629 74.3335V70.6853H23.8596C23.9385 70.6853 24.0126 70.6773 24.0883 70.6725L26.5156 74.5923C26.5692 74.6834 26.6307 74.7522 26.6969 74.7969C26.7648 74.8432 26.8562 74.8656 26.9729 74.8656C27.2158 74.8656 27.3799 74.7841 27.465 74.6195C27.5502 74.4565 27.525 74.2648 27.3909 74.0458L25.1781 70.4647H25.1797ZM23.8596 69.6609H21.8629V65.2201H23.8596C24.317 65.2201 24.7239 65.316 25.0803 65.5062C25.4352 65.6979 25.7159 65.9648 25.9226 66.3052C26.1292 66.6471 26.2333 67.0402 26.2333 67.4877C26.2333 67.9063 26.1292 68.2803 25.9226 68.6079C25.7159 68.9355 25.4352 69.1927 25.0803 69.3797C24.7255 69.5667 24.3186 69.6609 23.8596 69.6609Z" fill="#232427"/>
<path d="M33.7501 67.7966C33.2423 67.4818 32.6461 67.3252 31.9632 67.3252C31.2803 67.3252 30.6604 67.4898 30.1289 67.8174C29.599 68.145 29.1826 68.594 28.8814 69.1629C28.5801 69.7318 28.4287 70.3901 28.4287 71.138C28.4287 71.8859 28.588 72.5315 28.9082 73.1051C29.2268 73.6788 29.6668 74.1278 30.2299 74.4506C30.7914 74.775 31.4364 74.9364 32.1651 74.9364C32.5878 74.9364 33.0278 74.8517 33.4867 74.6839C33.9457 74.5162 34.3226 74.3036 34.6192 74.0495C34.7264 73.9585 34.7784 73.8498 34.7737 73.722C34.769 73.5941 34.7075 73.4759 34.5924 73.3672C34.5025 73.2937 34.3936 73.2601 34.269 73.2649C34.1429 73.2697 34.0309 73.3129 33.9315 73.3944C33.7344 73.5669 33.471 73.7108 33.1429 73.8242C32.8149 73.9377 32.4884 73.9952 32.1651 73.9952C31.6257 73.9952 31.1494 73.8722 30.7362 73.6261C30.3229 73.38 29.9965 73.0444 29.7583 72.6161C29.5706 72.279 29.4602 71.8987 29.4192 71.4816H34.862C35.0056 71.4816 35.1223 71.4384 35.2122 71.3521C35.3021 71.2658 35.3478 71.1492 35.3478 71.0038C35.3478 70.2943 35.2091 69.6615 34.9299 69.1054C34.6507 68.5493 34.258 68.1146 33.7501 67.7998V67.7966ZM29.4539 70.6043C29.5012 70.2639 29.5769 69.9411 29.7173 69.6551C29.9286 69.222 30.2267 68.8832 30.6147 68.6371C31.0011 68.391 31.4506 68.2696 31.9632 68.2696C32.4758 68.2696 32.9001 68.3879 33.2644 68.6244C33.6287 68.8609 33.9094 69.1884 34.1066 69.6071C34.2485 69.9075 34.3179 70.2479 34.3542 70.6043H29.4539Z" fill="#232427"/>
<path d="M44.7809 72.9256C44.6595 72.908 44.5443 72.9432 44.4371 73.0343C44.0412 73.3443 43.6232 73.5808 43.1832 73.7438C42.7432 73.9084 42.2748 73.9899 41.7811 73.9899C41.196 73.9899 40.6503 73.8732 40.1424 73.6415C39.6345 73.4098 39.1866 73.0886 38.8002 72.6779C38.4138 72.2672 38.111 71.7942 37.8902 71.2573C37.6694 70.7204 37.5606 70.1419 37.5606 69.5219C37.5606 68.9019 37.6709 68.3506 37.8902 67.8136C38.111 67.2767 38.4138 66.8037 38.8002 66.393C39.1866 65.9823 39.6345 65.6595 40.1424 65.423C40.6503 65.1865 41.196 65.0683 41.7811 65.0683C42.33 65.0683 42.811 65.1434 43.2242 65.2936C43.6374 65.4438 44.0207 65.6739 44.3708 65.9839C44.4607 66.0574 44.5522 66.0974 44.6468 66.107C44.7415 66.1166 44.8235 66.1022 44.8961 66.0654C44.967 66.0287 45.0127 65.9744 45.0317 65.9024C45.1026 65.8657 45.1578 65.8082 45.1925 65.7315C45.2272 65.6548 45.2399 65.5717 45.2257 65.4854C45.2115 65.3991 45.1657 65.324 45.0837 65.2601C44.5885 64.8414 44.0759 64.5362 43.546 64.3444C43.016 64.1526 42.4262 64.0568 41.7795 64.0568C41.0414 64.0568 40.3569 64.2006 39.7229 64.4866C39.0889 64.7743 38.5321 65.1674 38.0511 65.6691C37.57 66.1709 37.1962 66.751 36.9329 67.4109C36.6679 68.0709 36.5354 68.7756 36.5354 69.5219C36.5354 70.2682 36.671 70.9857 36.9407 71.6456C37.2104 72.3056 37.5858 72.8889 38.0668 73.3954C38.5479 73.9004 39.1046 74.2951 39.7387 74.5763C40.3727 74.8592 41.054 74.9998 41.7811 74.9998C42.3915 74.9998 42.9813 74.9103 43.5476 74.7329C44.1138 74.5556 44.6263 74.2535 45.0853 73.8253C45.1389 73.7614 45.1768 73.699 45.2004 73.6399C45.2225 73.5808 45.2336 73.5153 45.2336 73.4418C45.2336 73.2963 45.1878 73.1781 45.0979 73.087C45.008 72.9959 44.9024 72.9416 44.7809 72.924V72.9256Z" fill="#232427"/>
<path d="M51.8468 67.8238C51.2853 67.4914 50.6482 67.3252 49.9384 67.3252C49.2287 67.3252 48.5899 67.4914 48.0237 67.8238C47.4575 68.1562 47.0096 68.61 46.6815 69.1837C46.3535 69.7573 46.1895 70.4093 46.1895 71.138C46.1895 71.8667 46.3488 72.5043 46.6689 73.078C46.9875 73.6516 47.4212 74.1055 47.9701 74.4379C48.519 74.7702 49.1388 74.9364 49.8312 74.9364C50.4873 74.9364 51.074 74.7846 51.5913 74.4794C52.0203 74.2269 52.3562 73.8802 52.637 73.4759V74.3484C52.637 74.5034 52.6859 74.6296 52.7852 74.7239C52.8846 74.8198 53.0108 74.8677 53.1638 74.8677C53.3167 74.8677 53.4429 74.8198 53.5407 74.7239C53.6401 74.6296 53.689 74.5034 53.689 74.3484V71.138C53.6795 70.4093 53.5123 69.7589 53.1827 69.1837C52.8546 68.61 52.4098 68.1577 51.8484 67.8238H51.8468ZM52.3058 72.5922C52.0676 73.0252 51.7443 73.364 51.3342 73.6101C50.9257 73.8562 50.4605 73.9776 49.9384 73.9776C49.4164 73.9776 48.9621 73.8546 48.5489 73.6101C48.1357 73.364 47.8076 73.0252 47.5648 72.5922C47.3219 72.1607 47.2004 71.6749 47.2004 71.138C47.2004 70.6011 47.3219 70.1041 47.5648 69.6758C47.8076 69.2492 48.1357 68.9088 48.5489 68.6579C48.9621 68.4086 49.4258 68.2824 49.9384 68.2824C50.451 68.2824 50.9257 68.4086 51.3342 68.6579C51.7427 68.9088 52.0676 69.2476 52.3058 69.6758C52.5439 70.1041 52.6638 70.5915 52.6638 71.138C52.6638 71.6845 52.5455 72.1607 52.3058 72.5922Z" fill="#232427"/>
<path d="M89.7247 64.4825C89.5275 64.4825 89.354 64.5497 89.2058 64.6807C89.0575 64.8133 88.9834 64.9923 88.9834 65.2208C88.9834 65.4302 89.0559 65.6075 89.1995 65.7529C89.343 65.8984 89.5133 65.9719 89.712 65.9719C89.9108 65.9719 90.0937 65.9 90.2388 65.7529C90.3839 65.6059 90.4549 65.4302 90.4549 65.2208C90.4549 64.9923 90.3808 64.8133 90.2325 64.6807C90.0843 64.5497 89.9155 64.4825 89.7262 64.4825H89.7247Z" fill="#232427"/>
<path d="M63.6175 64.1966C63.0055 64.1966 62.4882 64.3308 62.0671 64.5993C61.6444 64.8677 61.3243 65.2432 61.1098 65.7274C60.8937 66.21 60.7864 66.7709 60.7864 67.4085V67.6674H59.9237C59.7802 67.6674 59.665 67.7105 59.5799 67.7968C59.4947 67.8831 59.4521 67.995 59.4521 68.1324C59.4521 68.2603 59.4947 68.3673 59.5799 68.4536C59.665 68.5399 59.7802 68.583 59.9237 68.583H60.7864V74.3358C60.7864 74.4988 60.8369 74.6298 60.9347 74.7241C61.034 74.82 61.1508 74.868 61.2848 74.868C61.4552 74.868 61.5892 74.82 61.6823 74.7241C61.7769 74.6298 61.8242 74.4988 61.8242 74.3358V68.583H63.4424C63.5859 68.583 63.7011 68.5399 63.7862 68.4536C63.8714 68.3673 63.914 68.2603 63.914 68.1324C63.914 67.995 63.8714 67.8847 63.7862 67.7968C63.7011 67.7105 63.5859 67.6674 63.4424 67.6674H61.8242V67.3526C61.8242 66.9243 61.8889 66.544 62.0198 66.2116C62.1507 65.8792 62.3478 65.6204 62.6128 65.4334C62.8778 65.2464 63.2121 65.1522 63.6175 65.1522C63.7705 65.1522 63.8966 65.1074 63.996 65.0147C64.0938 64.9236 64.1443 64.8102 64.1443 64.6728C64.1443 64.5353 64.0938 64.4219 63.996 64.3308C63.8966 64.2397 63.7705 64.1934 63.6175 64.1934V64.1966Z" fill="#232427"/>
<path d="M71.2904 67.3938C71.1374 67.3938 71.0144 67.4418 70.9198 67.5376C70.8252 67.6335 70.7778 67.7598 70.7778 67.9132V71.9577C70.7778 72.3412 70.6753 72.6816 70.4671 72.982C70.2605 73.2824 69.9798 73.5205 69.6249 73.6931C69.2701 73.8657 68.8726 73.952 68.431 73.952C67.9894 73.952 67.562 73.8609 67.1976 73.6787C66.8333 73.4966 66.5463 73.2233 66.3349 72.859C66.1236 72.4946 66.0179 72.0296 66.0179 71.4655V67.9132C66.0179 67.7678 65.969 67.6447 65.8697 67.544C65.7703 67.4434 65.6457 67.3938 65.4927 67.3938C65.3492 67.3938 65.2277 67.4434 65.1284 67.544C65.029 67.6447 64.9801 67.7678 64.9801 67.9132V71.4655C64.9801 72.2118 65.1268 72.8446 65.4186 73.3639C65.7103 73.8833 66.1078 74.278 66.6125 74.5448C67.1156 74.8133 67.6866 74.9475 68.3253 74.9475C68.9089 74.9475 69.4388 74.8181 69.9167 74.5576C70.2605 74.3707 70.5365 74.115 70.7794 73.8289V74.3323C70.7794 74.4953 70.8267 74.6263 70.9214 74.7206C71.016 74.8165 71.139 74.8644 71.292 74.8644C71.445 74.8644 71.5712 74.8165 71.6705 74.7206C71.7699 74.6263 71.8188 74.4953 71.8188 74.3323V67.91C71.8188 67.7566 71.7699 67.6303 71.6705 67.5344C71.5712 67.4386 71.445 67.3906 71.292 67.3906L71.2904 67.3938Z" fill="#232427"/>
<path d="M78.3436 67.4899C78.1181 67.3716 77.7995 67.3125 77.3863 67.3125C76.8658 67.3125 76.3911 67.4403 75.9637 67.6944C75.6088 67.907 75.3233 68.201 75.0805 68.5446V67.9133C75.0805 67.7504 75.0363 67.6225 74.9448 67.5314C74.8549 67.4403 74.7287 67.394 74.5663 67.394C74.4038 67.394 74.2793 67.4387 74.1894 67.5314C74.0995 67.6241 74.0537 67.7504 74.0537 67.9133V74.3485C74.0537 74.5131 74.0979 74.6393 74.1894 74.732C74.2808 74.8247 74.4054 74.8694 74.5663 74.8694C74.7272 74.8694 74.8549 74.8247 74.9448 74.732C75.0347 74.6409 75.0805 74.5131 75.0805 74.3485V70.2624C75.0805 69.8357 75.1956 69.4666 75.4243 69.1566C75.653 68.8466 75.9637 68.6165 76.3548 68.4663C76.746 68.316 77.1923 68.2633 77.697 68.3096C77.85 68.3176 77.9872 68.3272 78.1086 68.3368C78.2301 68.3464 78.3326 68.3288 78.4194 68.2825C78.5046 68.2377 78.566 68.1451 78.6023 68.0092C78.6559 67.7823 78.5708 67.6081 78.3452 67.4899H78.3436Z" fill="#232427"/>
<path d="M85.2471 67.7135C84.7439 67.445 84.173 67.3108 83.5343 67.3108C82.9491 67.3108 82.4192 67.4402 81.9429 67.7007C81.6006 67.8877 81.3246 68.1402 81.0801 68.4246V67.926C81.0801 67.763 81.0328 67.632 80.9382 67.5361C80.8436 67.4402 80.7206 67.3923 80.5676 67.3923C80.4067 67.3923 80.2774 67.4402 80.1827 67.5361C80.0881 67.632 80.0408 67.7614 80.0408 67.926V74.3468C80.0408 74.5018 80.0881 74.628 80.1827 74.7223C80.2774 74.8182 80.4051 74.8661 80.5676 74.8661C80.7206 74.8661 80.8436 74.8182 80.9382 74.7223C81.0328 74.628 81.0801 74.5018 81.0801 74.3468V70.3038C81.0801 69.9203 81.1827 69.5799 81.3909 69.2779C81.5975 68.9775 81.8782 68.741 82.2331 68.5684C82.5879 68.3958 82.9854 68.3095 83.427 68.3095C83.8686 68.3095 84.296 68.4006 84.6603 68.5828C85.0247 68.765 85.3117 69.0382 85.5231 69.4026C85.7344 69.7669 85.8401 70.2319 85.8401 70.796V74.3484C85.8401 74.4938 85.889 74.6168 85.9884 74.7175C86.0877 74.8182 86.2123 74.8677 86.3653 74.8677C86.5088 74.8677 86.6303 74.8166 86.7296 74.7175C86.829 74.6184 86.8779 74.4954 86.8779 74.3484V70.796C86.8779 70.0497 86.7312 69.4153 86.4394 68.8976C86.1476 68.3782 85.7486 67.9836 85.2455 67.7151L85.2471 67.7135Z" fill="#232427"/>
<path d="M89.7245 67.3936C89.5621 67.3936 89.4344 67.4415 89.3397 67.5374C89.2451 67.6333 89.1978 67.7627 89.1978 67.9273V74.3352C89.1978 74.4982 89.2451 74.6293 89.3397 74.7235C89.4344 74.8194 89.5621 74.8674 89.7245 74.8674C89.8775 74.8674 90.0005 74.8194 90.0952 74.7235C90.1898 74.6293 90.2371 74.4982 90.2371 74.3352V67.9273C90.2371 67.7643 90.1898 67.6333 90.0952 67.5374C90.0005 67.4415 89.8775 67.3936 89.7245 67.3936Z" fill="#232427"/>
<path d="M95.9403 73.8148H95.5775C95.1549 73.8148 94.8095 73.6678 94.5398 73.3706C94.2701 73.0749 94.1344 72.6946 94.1344 72.2296V68.5814H95.658C95.7936 68.5814 95.9056 68.5382 95.9955 68.4519C96.0854 68.3656 96.1296 68.2586 96.1296 68.1307C96.1296 67.9933 96.0854 67.883 95.9955 67.7952C95.9056 67.7089 95.7936 67.6657 95.658 67.6657H94.1344V65.5484C94.1344 65.3934 94.084 65.2655 93.9862 65.1649C93.8884 65.0642 93.7622 65.0146 93.6092 65.0146C93.4562 65.0146 93.3317 65.0658 93.2386 65.1649C93.144 65.2655 93.0966 65.3934 93.0966 65.5484V67.6657H92.2197C92.0841 67.6657 91.9721 67.7089 91.8822 67.7952C91.7923 67.8814 91.7482 67.9933 91.7482 68.1307C91.7482 68.2586 91.7923 68.3656 91.8822 68.4519C91.9721 68.5382 92.0841 68.5814 92.2197 68.5814H93.0966V72.2296C93.0966 72.7393 93.2055 73.1932 93.42 73.5895C93.636 73.9858 93.9294 74.299 94.3032 74.5259C94.6754 74.7544 95.1012 74.8679 95.5775 74.8679H95.8599C96.0223 74.8679 96.1564 74.8199 96.2652 74.724C96.3725 74.6298 96.4261 74.5035 96.4261 74.3485C96.4261 74.1935 96.3803 74.0657 96.2904 73.9666C96.2005 73.8659 96.0838 73.8164 95.9387 73.8164L95.9403 73.8148Z" fill="#232427"/>
<path d="M104.099 67.3938C103.946 67.3938 103.823 67.4418 103.728 67.5376C103.634 67.6335 103.586 67.7598 103.586 67.9132V71.9577C103.586 72.3412 103.484 72.6816 103.276 72.982C103.069 73.2824 102.788 73.5205 102.434 73.6931C102.079 73.8657 101.681 73.952 101.24 73.952C100.798 73.952 100.371 73.8609 100.006 73.6787C99.6419 73.4966 99.3549 73.2233 99.1435 72.859C98.9322 72.4946 98.8265 72.0296 98.8265 71.4655V67.9132C98.8265 67.7678 98.776 67.6447 98.6782 67.544C98.5789 67.4434 98.4527 67.3938 98.3013 67.3938C98.1578 67.3938 98.0363 67.4434 97.937 67.544C97.8376 67.6447 97.7887 67.7678 97.7887 67.9132V71.4655C97.7887 72.2118 97.9338 72.8446 98.2272 73.3639C98.5189 73.8833 98.9164 74.278 99.4195 74.5448C99.9226 74.8133 100.494 74.9475 101.132 74.9475C101.717 74.9475 102.247 74.8181 102.724 74.5576C103.068 74.3707 103.344 74.115 103.586 73.8289V74.3323C103.586 74.4953 103.634 74.6263 103.728 74.7206C103.823 74.8165 103.946 74.8644 104.099 74.8644C104.252 74.8644 104.378 74.8165 104.476 74.7206C104.575 74.6263 104.624 74.4953 104.624 74.3323V67.91C104.624 67.7566 104.575 67.6303 104.476 67.5344C104.377 67.4386 104.252 67.3906 104.099 67.3906V67.3938Z" fill="#232427"/>
<path d="M111.152 67.4899C110.927 67.3716 110.608 67.3125 110.195 67.3125C109.673 67.3125 109.2 67.4403 108.772 67.6944C108.417 67.907 108.132 68.201 107.889 68.5446V67.9133C107.889 67.7504 107.843 67.6225 107.753 67.5314C107.664 67.4403 107.537 67.394 107.375 67.394C107.212 67.394 107.088 67.4387 106.998 67.5314C106.908 67.6225 106.862 67.7504 106.862 67.9133V74.3485C106.862 74.5131 106.906 74.6393 106.998 74.732C107.088 74.8231 107.214 74.8694 107.375 74.8694C107.536 74.8694 107.662 74.8247 107.753 74.732C107.843 74.6409 107.889 74.5131 107.889 74.3485V70.2624C107.889 69.8357 108.004 69.4666 108.233 69.1566C108.462 68.8466 108.772 68.6165 109.163 68.4663C109.555 68.316 110.001 68.2633 110.506 68.3096C110.659 68.3176 110.796 68.3272 110.917 68.3368C111.039 68.3464 111.141 68.3288 111.228 68.2825C111.313 68.2377 111.373 68.1451 111.409 68.0092C111.463 67.7823 111.378 67.6081 111.154 67.4899H111.152Z" fill="#232427"/>
<path d="M117.24 67.7966C116.732 67.4818 116.136 67.3252 115.453 67.3252C114.77 67.3252 114.15 67.4898 113.621 67.8174C113.089 68.145 112.674 68.594 112.373 69.1629C112.072 69.7318 111.922 70.3901 111.922 71.138C111.922 71.8859 112.081 72.5315 112.401 73.1051C112.72 73.6788 113.16 74.1278 113.723 74.4506C114.284 74.775 114.93 74.9364 115.658 74.9364C116.081 74.9364 116.521 74.8517 116.98 74.6839C117.437 74.5162 117.816 74.3036 118.112 74.0495C118.221 73.9585 118.272 73.8498 118.267 73.722C118.262 73.5941 118.201 73.4759 118.086 73.3672C117.996 73.2937 117.887 73.2601 117.762 73.2649C117.636 73.2697 117.524 73.3129 117.425 73.3944C117.228 73.5669 116.964 73.7108 116.636 73.8242C116.308 73.9377 115.982 73.9952 115.658 73.9952C115.119 73.9952 114.642 73.8722 114.229 73.6261C113.816 73.38 113.49 73.0444 113.251 72.6161C113.064 72.279 112.953 71.8987 112.914 71.4816H118.357C118.5 71.4816 118.617 71.4384 118.707 71.3521C118.797 71.2658 118.843 71.1492 118.843 71.0038C118.843 70.2943 118.702 69.6615 118.425 69.1054C118.145 68.5493 117.753 68.1146 117.245 67.7998L117.24 67.7966ZM112.945 70.6043C112.993 70.2639 113.068 69.9411 113.209 69.6551C113.42 69.222 113.718 68.8832 114.106 68.6371C114.493 68.391 114.942 68.2696 115.455 68.2696C115.967 68.2696 116.392 68.3879 116.756 68.6244C117.12 68.8609 117.401 69.1884 117.6 69.6071C117.742 69.9075 117.811 70.2479 117.846 70.6043H112.945Z" fill="#232427"/>
<path d="M17.8096 37.1741C22.9118 37.1741 27.8184 38.0306 31.7519 38.721L33.3117 31.3782C28.7616 30.3251 23.6925 29.5996 18.4594 29.5996C4.71263 29.5996 0 33.9126 0 41.1898C0 48.4671 4.71263 52.8136 18.4594 52.8136C23.6909 52.8136 28.7616 52.0882 33.3117 51.0351V40.9597H24.2113V44.9771C22.1642 45.1417 19.9861 45.2408 17.8096 45.2408C10.1066 45.2408 8.77389 44.055 8.77389 41.1898C8.77389 38.3246 10.1066 37.1725 17.8096 37.1725V37.1741Z" fill="#232427"/>
<path d="M64.3223 46.2958L64.9075 46.2303C69.587 45.703 72.7398 43.2996 72.7398 38.1956C72.7398 31.7413 68.352 29.9308 62.8603 29.9308H39.917V52.3874H48.6924V46.7896H54.8025L61.8225 52.3874H72.7745L65.8853 47.1188L64.3255 46.2958H64.3223ZM61.8856 40.2043H48.6909V37.5037H61.8856C63.1205 37.5037 63.641 37.7338 63.641 38.8859C63.641 39.8735 63.1205 40.2027 61.8856 40.2027V40.2043Z" fill="#232427"/>
<path d="M77.4429 41.1599C77.4429 49.161 82.9362 52.8811 96.2271 52.8811C109.518 52.8811 115.011 49.161 115.011 41.1599C115.011 33.1587 109.52 29.4386 96.2271 29.4386C82.9346 29.4386 77.4429 33.1587 77.4429 41.1599ZM106.073 41.1599C106.073 44.4517 104.124 45.3083 96.2271 45.3083C88.3302 45.3083 86.2183 44.4517 86.2183 41.1599C86.2183 37.868 88.3302 37.0115 96.2271 37.0115C104.124 37.0115 106.073 37.868 106.073 41.1599Z" fill="#232427"/>
<path d="M137.026 52.7821C147.003 52.7821 153.6 49.8833 153.6 42.3104V29.9308H144.825V40.3689C144.825 44.2216 142.582 45.2092 137.026 45.2092C131.469 45.2092 129.226 44.2216 129.226 40.3689V29.9308H120.451V42.3104C120.451 49.8833 127.048 52.7821 137.026 52.7821Z" fill="#232427"/>
<path d="M183.119 29.9308H160.176V52.3874H168.951V48.1063H183.121C188.612 48.1063 193 45.6694 193 38.5232C193 31.8068 188.612 29.9308 183.121 29.9308H183.119ZM182.013 40.5335H168.95V37.5037H182.013C183.15 37.5037 183.898 37.7338 183.898 39.017C183.898 40.1707 183.15 40.5319 182.013 40.5319V40.5335Z" fill="#232427"/>
<path d="M44.6815 22.4569V0.00195312H34.2169L22.7776 15.1813L11.3383 0.00195312H0.678101V22.4569H9.45357V10.5391L18.2274 22.4569H27.1322L35.9077 10.5711V22.4569H44.6815Z" fill="#232427"/>
<path d="M85.7655 22.4566L72.1482 0H60.4155L46.7981 22.4566H57.3273L59.4392 18.7365H72.9904L75.1022 22.4566H85.7624H85.7655ZM62.8869 12.6449L66.2337 6.81703L69.549 12.6449H62.8869Z" fill="#232427"/>
<path d="M110.102 0.00170898L101.228 15.181L92.3251 0.00170898H81.6649L95.2823 22.4567H107.015L120.631 0.00170898H110.102Z" fill="#232427"/>
<path d="M123.027 22.4567H153.315V15.5422H131.802V13.9953H152.698V8.39756H131.802V6.91462H153.315V0.00170898H123.027V22.4567Z" fill="#232427"/>
<path d="M166.322 9.3196L182.572 22.4567H192.322V0.00170898H183.546V12.7777L167.525 0.00170898H157.548V22.4567H166.322V9.3196Z" fill="#232427"/>
</svg>
