<svg width="40" height="48" viewBox="0 0 40 48" fill="none" xmlns="http://www.w3.org/2000/svg">
<path d="M9.99999 30.8571L13.3333 41.1429V44.5714L20 48L26.6667 44.5714V41.1429L30 30.8571L33.3333 41.1429L40 37.7143V6.85714C40 3.06875 31.0466 0 20 0C8.95339 0 0 3.06875 0 6.85714V37.7143L6.66666 41.1429L9.99999 30.8571ZM1.66619 6.85714C1.66619 6.30124 2.65275 4.91295 6.38261 3.63446C9.99619 2.39716 14.8327 1.71477 19.999 1.71477C25.1654 1.71477 30.0029 2.39716 33.6155 3.63446C37.3453 4.91295 38.3319 6.30222 38.3319 6.85714C38.3319 7.41207 37.3453 8.80134 33.6155 10.0798C30.0019 11.3171 25.1654 11.9995 19.999 11.9995C14.8327 11.9995 9.99523 11.3171 6.38261 10.0798C2.65275 8.80134 1.66619 7.41207 1.66619 6.85714Z" fill="#A8A198"/>
</svg>
