<svg width="56" height="56" viewBox="0 0 56 56" fill="none" xmlns="http://www.w3.org/2000/svg">
<path d="M27.9999 27.246C25.7541 27.246 23.9026 26.5174 22.4454 25.0602C20.9882 23.603 20.2596 21.7478 20.2596 19.4945C20.2596 17.2412 20.9882 15.3897 22.4454 13.9399C23.9026 12.4902 25.7541 11.7654 27.9999 11.7654C30.2457 11.7654 32.0972 12.4902 33.5544 13.9399C35.0116 15.3897 35.7402 17.2412 35.7402 19.4945C35.7402 21.7478 35.0116 23.603 33.5544 25.0602C32.0972 26.5174 30.2457 27.246 27.9999 27.246ZM10.5 45.0511V40.6223C10.5 39.3689 10.8321 38.277 11.4962 37.3467C12.1603 36.4164 13.0233 35.7014 14.0853 35.2018C16.5412 34.11 18.9087 33.2873 21.1877 32.7339C23.4668 32.1805 25.7373 31.9038 27.9992 31.9038C30.2613 31.9038 32.526 32.1865 34.7935 32.7518C37.061 33.3172 39.4179 34.1392 41.8641 35.2177C42.9676 35.716 43.8494 36.4279 44.5096 37.3536C45.1698 38.2794 45.4999 39.3689 45.4999 40.6223V45.0511H10.5ZM13.1474 42.4037H42.8525V40.6223C42.8525 40.015 42.6603 39.4332 42.2759 38.8768C41.8915 38.3204 41.3897 37.8836 40.7704 37.5665C38.476 36.4507 36.3118 35.6692 34.2778 35.222C32.2438 34.7748 30.1512 34.5511 27.9999 34.5511C25.8487 34.5511 23.7404 34.7748 21.675 35.222C19.6096 35.6692 17.4491 36.4507 15.1936 37.5665C14.5743 37.8836 14.0785 38.3204 13.7061 38.8768C13.3336 39.4332 13.1474 40.015 13.1474 40.6223V42.4037ZM27.9999 24.5987C29.4568 24.5987 30.6698 24.114 31.639 23.1448C32.6082 22.1755 33.0928 20.9625 33.0928 19.5057C33.0928 18.0489 32.6082 16.8359 31.639 15.8666C30.6698 14.8974 29.4568 14.4128 27.9999 14.4128C26.5431 14.4128 25.3301 14.8974 24.3609 15.8666C23.3916 16.8359 22.907 18.0489 22.907 19.5057C22.907 20.9625 23.3916 22.1755 24.3609 23.1448C25.3301 24.114 26.5431 24.5987 27.9999 24.5987Z" fill="#A8A198"/>
</svg>
