<svg width="56" height="56" viewBox="0 0 56 56" fill="none" xmlns="http://www.w3.org/2000/svg">
<path d="M27.9999 38.1902C30.8029 38.1902 33.2043 37.1866 35.2041 35.1793C37.2038 33.1721 38.2037 30.7745 38.2037 27.9864C38.2037 25.1835 37.2038 22.7821 35.2041 20.7823C33.2043 18.7826 30.8029 17.7827 27.9999 17.7827C25.197 17.7827 22.7956 18.7826 20.7958 20.7823C18.7961 22.7821 17.7962 25.1835 17.7962 27.9864C17.7962 30.7745 18.7961 33.1721 20.7958 35.1793C22.7956 37.1866 25.197 38.1902 27.9999 38.1902ZM32.182 33.5864L26.766 28.4801V20.8608H28.9018V27.8025L33.5999 32.1685L32.182 33.5864ZM27.9999 50.0857C22.9295 48.6947 18.7452 45.6771 15.4471 41.0329C12.149 36.3887 10.5 31.2456 10.5 25.6038V12.4384L27.9999 5.88721L45.4999 12.4384V25.6038C45.4999 31.2456 43.8508 36.3887 40.5527 41.0329C37.2547 45.6771 33.0704 48.6947 27.9999 50.0857ZM27.9999 47.3217C32.3525 45.9037 35.9161 43.177 38.6906 39.1416C41.4652 35.1061 42.8525 30.5935 42.8525 25.6038V14.2826L27.9999 8.70057L13.1474 14.2826V25.6038C13.1474 30.5935 14.5347 35.1061 17.3092 39.1416C20.0838 43.177 23.6474 45.9037 27.9999 47.3217Z" fill="#A8A198"/>
</svg>
