<svg width="33" height="37" viewBox="0 0 33 37" fill="none" xmlns="http://www.w3.org/2000/svg">
<g clip-path="url(#clip0_883_5235)">
<path d="M24.4561 13.3227C26.8638 15.0253 29.8134 16.0271 32.9991 16.0271V9.96295C32.3962 9.96308 31.7948 9.90082 31.205 9.77719V14.5506C28.0196 14.5506 25.0703 13.5489 22.6621 11.8464V24.2217C22.6621 30.4126 17.5889 35.4308 11.3312 35.4308C8.99637 35.4308 6.8261 34.7325 5.02335 33.5349C7.08095 35.6162 9.9504 36.9072 13.1248 36.9072C19.383 36.9072 24.4564 31.889 24.4564 25.6979L24.4561 13.3227ZM26.6694 7.20467C25.4389 5.87483 24.6309 4.15625 24.4561 2.25623V1.4763H22.756C23.1839 3.89112 24.6438 5.95419 26.6694 7.20467ZM8.98129 28.7843C8.29382 27.8927 7.9222 26.8018 7.92387 25.6802C7.92387 22.8488 10.2443 20.553 13.1072 20.553C13.6406 20.5527 14.1709 20.6338 14.6795 20.7932V14.5934C14.0852 14.5129 13.4855 14.4786 12.8861 14.4912V19.3168C12.3774 19.1572 11.8468 19.0762 11.3131 19.0767C8.45032 19.0767 6.13001 21.3722 6.13001 24.204C6.13001 26.2063 7.28978 27.9398 8.98129 28.7843Z" fill="#FF004F"/>
<path d="M22.6621 11.8464C25.0703 13.5489 28.0196 14.5506 31.205 14.5506V9.77719C29.4268 9.40247 27.8529 8.48321 26.6694 7.20467C24.6438 5.95419 23.1839 3.89112 22.756 1.4763H18.2902V25.6976C18.2801 28.5214 15.9636 30.8077 13.1069 30.8077C11.4237 30.8077 9.92836 30.0141 8.98129 28.7843C7.28978 27.9398 6.13001 26.2063 6.13001 24.204C6.13001 21.3722 8.45032 19.0767 11.3131 19.0767C11.8616 19.0767 12.3902 19.1611 12.8861 19.3168V14.4912C6.73832 14.6169 1.79399 19.5863 1.79399 25.6978C1.79399 28.7486 3.02504 31.514 5.02335 33.5349C6.8261 34.7325 8.99637 35.4308 11.3312 35.4308C17.5889 35.4308 22.6621 30.4126 22.6621 24.2217V11.8464Z" fill="black"/>
<path d="M31.205 9.77719V8.48652C29.6015 8.48893 28.0298 8.04471 26.6694 7.20467C27.8737 8.50887 29.4592 9.40824 31.205 9.77719ZM22.756 1.4763C22.7152 1.24557 22.6837 1.01318 22.662 0.779934V0H16.4959V24.2216C16.4861 27.0451 14.1696 29.3314 11.3128 29.3314C10.5029 29.3326 9.7045 29.1451 8.98129 28.7843C9.92836 30.0141 11.4237 30.8077 13.1069 30.8077C15.9636 30.8077 18.2801 28.5214 18.2902 25.6976V1.4763H22.756ZM12.8861 14.4912L12.8862 13.1173C12.371 13.0476 11.8515 13.0127 11.3315 13.0129C5.0731 13.0129 0 18.0314 0 24.2216C0 28.1026 1.99354 31.523 5.02335 33.5349C3.02504 31.514 1.79399 28.7486 1.79399 25.6978C1.79399 19.5863 6.73832 14.6169 12.8861 14.4912Z" fill="#00F2EA"/>
</g>
<defs>
<clipPath id="clip0_883_5235">
<rect width="33" height="37" fill="white"/>
</clipPath>
</defs>
</svg>
